<?xml version="1.0" standalone="no"?>
<!DOCTYPE svg PUBLIC "-//W3C//DTD SVG 20010904//EN"
 "http://www.w3.org/TR/2001/REC-SVG-20010904/DTD/svg10.dtd">
<svg version="1.0" xmlns="http://www.w3.org/2000/svg"
 width="540.000000pt" height="462.000000pt" viewBox="0 0 540.000000 462.000000"
 preserveAspectRatio="xMidYMid meet">

<g transform="translate(0.000000,462.000000) scale(0.100000,-0.100000)"
fill="#000000" stroke="none">
<path d="M2887 4583 c-4 -3 16 -21 43 -40 28 -18 50 -39 50 -45 0 -6 -11 -1
-24 11 -13 12 -52 32 -87 43 -84 26 -362 30 -449 5 -30 -8 -73 -18 -95 -22
-66 -11 -168 -71 -230 -136 -31 -32 -61 -59 -67 -59 -5 0 -39 -28 -75 -62 -48
-47 -76 -85 -109 -149 -23 -48 -49 -89 -57 -92 -44 -17 -112 -17 -205 -2 -183
31 -276 12 -365 -73 -43 -41 -61 -72 -70 -119 -7 -36 12 -92 40 -114 17 -13
17 -13 2 11 -25 40 -28 68 -15 121 25 94 120 159 233 160 32 1 94 -7 138 -16
44 -9 115 -17 157 -17 l78 0 -72 -136 c-39 -76 -78 -145 -87 -156 -26 -29
-199 -105 -289 -127 -89 -21 -150 -47 -173 -75 -10 -14 -6 -12 18 4 50 35 97
51 164 56 l63 5 -29 -19 c-17 -11 -33 -20 -38 -20 -9 0 -107 -79 -172 -139
-27 -25 -69 -59 -93 -75 -24 -17 -63 -52 -87 -78 -122 -136 -126 -298 -9 -379
24 -16 44 -32 44 -35 0 -3 -7 -19 -16 -35 -8 -17 -15 -55 -15 -84 0 -86 34
-135 115 -161 65 -21 98 -50 94 -84 -4 -32 -89 -85 -152 -93 -24 -4 -70 -18
-101 -32 -60 -26 -75 -25 -75 4 0 25 -39 70 -46 54 -3 -7 -19 -29 -35 -49 -16
-21 -32 -48 -35 -61 -8 -30 -18 -29 -32 1 -17 38 -83 126 -94 126 -5 0 6 -19
25 -42 42 -52 61 -88 48 -88 -5 0 -12 9 -16 19 -3 10 -20 39 -38 62 -17 24
-32 47 -33 52 -1 4 -2 10 -3 14 0 4 -6 2 -11 -3 -7 -7 0 -32 21 -79 38 -85 50
-115 44 -115 -8 0 -47 82 -72 150 l-24 65 4 -85 c5 -100 33 -174 93 -240 l38
-42 -24 -46 -25 -47 -85 3 c-63 3 -97 -1 -128 -13 -23 -10 -42 -19 -42 -21 0
-9 67 -64 97 -81 18 -10 33 -21 33 -25 0 -5 18 -8 39 -8 22 0 43 -4 46 -10 4
-6 -11 -10 -38 -10 -25 0 -60 -3 -78 -6 -26 -4 -30 -3 -19 5 8 6 10 11 4 11
-6 0 -29 -13 -51 -29 -43 -31 -72 -82 -79 -139 -4 -40 0 -34 10 11 9 40 71
103 120 122 24 9 63 15 90 13 l48 -3 20 -65 c22 -71 46 -112 89 -150 25 -23
29 -34 39 -140 12 -112 34 -195 50 -185 4 3 13 -2 20 -10 7 -8 21 -15 31 -15
14 0 19 7 19 30 0 17 2 30 5 30 6 0 79 -79 83 -90 3 -9 -81 -50 -102 -50 -7 0
-26 19 -42 42 -16 23 -37 51 -47 62 -10 12 -37 50 -61 86 -55 84 -123 122
-227 128 -82 5 -84 0 -34 -69 62 -83 142 -130 247 -144 39 -5 53 -14 92 -55
25 -27 46 -53 46 -58 0 -18 -50 -31 -99 -25 -52 6 -175 -24 -216 -54 -19 -13
-18 -14 10 -8 l30 6 -29 -17 c-22 -12 -26 -18 -15 -25 8 -5 24 -9 37 -9 30 0
28 -8 -15 -45 -35 -30 -38 -37 -38 -84 0 -42 -4 -54 -20 -63 -50 -27 -75 -63
-99 -142 -38 -131 -55 -213 -71 -356 -9 -74 -20 -162 -25 -195 -6 -33 -10 -75
-10 -92 l0 -33 1022 3 1023 2 -2 50 c-1 27 -6 51 -12 53 -6 2 -11 12 -11 23 0
24 -15 24 -46 0 -33 -26 -142 -45 -224 -39 -85 6 -170 45 -219 100 -19 20 -37
36 -40 33 -4 -2 -8 8 -9 22 -1 13 -7 32 -13 41 -10 16 -10 16 -5 0 3 -10 0
-18 -5 -18 -7 0 -9 11 -6 26 3 20 1 24 -12 19 -13 -5 -14 -4 -3 6 6 7 12 22
11 34 0 19 -1 19 -8 1 -7 -19 -8 -19 -22 0 -8 10 -21 20 -29 21 -9 2 -6 -4 8
-13 56 -41 -2 -160 -109 -227 -37 -23 -138 -47 -196 -47 -100 0 -224 65 -272
144 -12 19 -28 65 -37 102 -8 38 -24 86 -35 106 -31 60 -26 104 18 144 37 34
34 42 -10 25 -29 -11 -67 -69 -67 -102 0 -17 -3 -20 -9 -11 -6 10 -11 2 -16
-25 -7 -36 -8 -36 -15 -13 l-8 25 -1 -25 c-1 -20 -3 -22 -11 -10 -8 13 -10 12
-10 -2 0 -10 -3 -18 -7 -18 -14 0 -32 -49 -20 -53 6 -2 1 -6 -11 -9 -13 -4
-22 -2 -22 5 0 7 -5 5 -10 -3 -9 -13 -10 -13 -10 0 0 13 -1 13 -10 0 -8 -13
-10 -13 -10 1 0 19 -29 79 -31 64 0 -5 -7 4 -14 20 -9 19 -14 24 -15 12 0 -15
-3 -15 -22 -5 -34 20 -57 50 -59 78 l-1 25 -8 -25 c-7 -22 -8 -20 -10 15 -1
28 -4 34 -9 22 -5 -13 -11 0 -20 45 -11 51 -15 58 -20 38 -5 -19 -11 -7 -29
59 -12 46 -20 86 -17 89 3 3 5 0 5 -6 0 -6 15 -2 33 11 70 47 294 142 437 186
58 18 134 48 169 67 35 18 68 31 73 28 4 -3 8 0 8 5 0 6 7 11 15 11 8 0 15 4
15 10 0 5 6 7 13 4 8 -3 19 5 26 18 l12 23 -5 -22 c-6 -30 0 -29 18 5 29 53
15 2 -27 -100 -58 -139 -87 -212 -87 -220 0 -4 12 -3 26 2 35 14 188 12 238
-2 22 -6 55 -22 73 -35 17 -13 37 -23 43 -23 16 0 115 61 225 138 75 53 171
112 114 71 -14 -11 -14 -16 -2 -53 8 -22 13 -51 10 -63 -4 -22 -1 -23 60 -23
62 0 65 1 60 23 -3 12 -8 42 -11 67 -49 391 -49 392 -43 610 4 165 11 238 27
314 24 111 39 150 40 101 1 -96 71 -329 167 -560 86 -205 120 -269 191 -357
38 -48 73 -101 76 -117 3 -17 9 -45 12 -62 6 -31 5 -31 -22 -25 -37 10 -95 54
-101 77 -3 11 -9 16 -14 13 -9 -5 -19 15 -33 66 -6 19 -5 21 3 10 9 -13 11
-12 11 5 0 13 3 16 8 8 5 -7 13 -9 21 -3 9 5 24 2 40 -8 22 -14 20 -10 -12 30
-47 57 -99 98 -125 98 -32 0 -65 -43 -174 -225 -39 -65 -37 -75 19 -75 24 0
31 4 27 15 -11 29 8 39 28 14 18 -22 18 -22 9 -2 -18 36 -12 40 14 8 18 -21
23 -24 18 -10 -3 11 -10 25 -14 31 -5 6 -6 13 -3 17 3 3 1 14 -4 24 -7 12 -6
22 3 30 10 9 25 -8 71 -78 68 -104 84 -102 26 4 -38 70 -66 140 -43 107 9 -12
13 -12 19 -2 6 9 25 -16 62 -82 30 -52 62 -105 73 -118 18 -23 18 -23 2 9 -39
80 -35 83 26 21 36 -38 52 -50 39 -30 -12 17 -26 32 -32 32 -6 0 -9 2 -6 5 3
3 24 -4 47 -16 l41 -21 65 32 c36 18 65 36 65 40 0 4 -11 19 -25 34 -14 15
-25 30 -25 33 0 3 -17 32 -37 64 -73 112 -95 150 -97 164 -1 8 -12 25 -24 38
-12 13 -22 27 -22 32 0 4 -15 31 -32 59 -18 28 -33 55 -33 61 0 5 -11 10 -24
9 -21 -1 -22 0 -7 11 14 11 15 14 1 25 -10 9 -12 16 -5 24 6 9 2 24 -15 49
-14 20 -25 40 -25 44 0 5 -14 24 -31 43 -17 19 -27 29 -23 21 5 -9 3 -12 -5
-7 -7 5 -9 17 -5 29 3 12 3 19 -1 15 -18 -17 -51 47 -94 186 -21 65 -59 431
-47 443 2 3 21 -22 42 -54 43 -68 97 -136 139 -177 17 -16 21 -23 10 -16 -11
7 0 -5 24 -28 25 -22 48 -39 52 -36 4 2 10 0 13 -5 4 -5 1 -13 -5 -16 -11 -7
72 -69 165 -122 27 -15 57 -33 67 -39 11 -6 16 -14 12 -17 -3 -4 0 -7 9 -7 8
0 25 -9 38 -20 13 -11 19 -20 15 -20 -5 0 1 -9 13 -20 12 -11 28 -20 36 -20
22 0 29 -18 9 -23 -13 -3 -11 -5 6 -6 13 0 22 -4 18 -7 -3 -4 0 -22 8 -42 10
-23 12 -39 5 -47 -5 -6 -7 -15 -3 -18 3 -4 0 -7 -8 -7 -12 0 -11 -2 1 -10 12
-8 13 -12 2 -19 -8 -4 -13 -11 -13 -15 3 -20 -1 -26 -16 -26 -15 0 -14 -2 3
-15 10 -8 14 -15 8 -15 -6 0 -10 -11 -8 -25 1 -17 -4 -29 -18 -36 -17 -9 -18
-13 -5 -27 8 -9 12 -23 10 -29 -3 -8 3 -13 14 -13 14 0 15 -2 4 -9 -12 -8 -11
-12 4 -27 25 -25 46 -26 52 -3 3 10 9 17 13 14 4 -3 11 7 14 23 13 54 78 207
94 220 9 6 12 12 7 12 -14 0 38 51 68 66 15 8 27 12 28 9 4 -21 2 -52 -5 -63
-4 -7 -2 -12 4 -12 7 0 5 -7 -4 -16 -19 -19 -21 -30 -3 -18 7 5 5 2 -5 -8 -10
-9 -18 -28 -18 -42 0 -15 -4 -34 -9 -44 -10 -20 -27 -96 -36 -164 -3 -26 -12
-53 -18 -60 -7 -7 -18 -29 -25 -48 -11 -31 -10 -37 5 -47 15 -12 11 -18 -10
-14 -5 1 -6 -3 -2 -8 3 -6 -1 -24 -10 -40 -8 -17 -21 -57 -29 -91 l-14 -61 24
-10 c41 -15 50 -11 98 37 41 41 62 75 36 59 -6 -4 -3 10 7 29 9 20 18 34 21
32 2 -2 -1 -14 -8 -25 -6 -12 -8 -26 -5 -31 3 -5 -10 -41 -30 -80 -25 -49 -31
-70 -22 -70 8 0 41 50 73 111 32 62 64 112 69 113 20 2 10 -60 -17 -111 -16
-29 -25 -53 -21 -53 5 0 27 27 51 59 65 89 70 91 67 28 -1 -29 -5 -59 -9 -65
-4 -7 -2 -12 3 -12 6 0 11 5 11 11 0 5 4 8 9 5 5 -4 12 0 14 6 3 8 6 6 6 -4 1
-10 6 -18 12 -18 5 0 8 4 5 8 -3 5 1 9 9 9 8 0 12 -4 9 -9 -3 -4 9 -8 25 -8
17 0 31 2 31 4 0 3 -15 31 -34 63 -18 32 -45 80 -60 106 -39 68 -84 117 -110
117 -23 0 -105 -77 -126 -120 -12 -24 -12 -24 6 -9 39 33 47 33 31 3 -8 -16
-22 -47 -32 -69 -18 -40 -72 -105 -87 -105 -12 0 -9 92 5 122 7 15 38 58 71
95 47 55 74 102 133 234 149 329 196 470 209 623 8 90 16 84 40 -25 47 -221
51 -484 13 -790 -10 -86 -19 -163 -19 -172 0 -10 -7 -17 -15 -17 -8 0 -15 -6
-15 -13 0 -23 26 -49 45 -46 24 5 54 92 47 136 -2 18 -2 33 1 33 21 0 71 -31
199 -126 225 -166 322 -221 302 -171 -3 8 2 27 11 43 8 16 15 36 15 45 0 29
23 36 128 41 108 5 115 3 125 -42 8 -35 51 -152 62 -170 6 -9 39 -36 74 -60
36 -25 67 -52 69 -60 4 -13 2 -12 -14 1 -22 19 -79 49 -93 49 -5 0 1 -28 15
-62 13 -34 24 -67 24 -74 0 -6 7 -17 15 -24 8 -7 15 -22 15 -34 0 -12 14 -62
30 -111 17 -49 30 -101 30 -116 0 -33 -24 -39 -150 -39 l-87 0 -6 46 c-6 54
-32 89 -43 60 -4 -10 -10 -13 -13 -8 -3 6 -37 12 -75 13 l-68 2 -14 -32 c-8
-19 -14 -41 -14 -50 0 -20 -35 -52 -46 -43 -4 4 -4 -1 -1 -10 5 -15 4 -16 -13
-6 -10 7 -16 16 -14 20 9 14 -37 9 -64 -7 -25 -15 -36 -14 -162 19 -74 19
-139 31 -143 27 -4 -4 -9 -20 -10 -36 -2 -32 9 -37 168 -74 88 -20 114 -21
807 -21 l715 0 -3 23 c-2 12 -13 96 -24 187 -38 301 -80 503 -114 555 -10 15
-33 36 -52 47 -31 18 -34 24 -34 68 0 37 -6 55 -25 78 -14 17 -25 32 -25 35 0
3 20 8 45 11 25 4 45 11 45 16 0 16 -83 66 -139 85 -40 13 -74 16 -133 13
-116 -7 -124 4 -56 75 38 40 61 57 79 57 83 0 196 62 258 140 61 77 57 84 -36
77 -43 -3 -90 -9 -105 -13 l-26 -6 10 43 c26 117 -36 247 -157 327 -38 25 -43
31 -27 36 10 4 36 -1 58 -10 51 -23 157 -22 209 1 22 9 64 35 94 58 l55 41
-45 19 c-95 41 -225 17 -326 -60 -24 -18 -45 -33 -48 -33 -6 0 20 71 43 116
11 21 49 66 83 99 72 69 104 131 119 230 13 96 13 115 -5 115 -25 0 -82 -58
-126 -128 l-42 -66 -33 65 c-18 36 -39 71 -48 78 -13 11 -17 7 -32 -26 -21
-50 -30 -161 -15 -205 6 -19 28 -62 47 -94 l36 -59 -18 -53 c-10 -29 -21 -55
-25 -58 -4 -2 -17 11 -29 30 -11 19 -46 57 -76 85 -41 37 -58 62 -69 98 -8 26
-15 49 -15 51 0 1 10 2 23 2 20 1 20 2 -5 13 -30 13 -222 187 -214 194 2 2 26
-7 52 -21 67 -36 155 -36 224 -1 66 34 64 41 -2 10 -55 -26 -130 -33 -158 -15
-10 6 2 9 41 8 56 -1 84 7 74 22 -3 5 8 18 24 29 36 26 56 72 46 108 l-8 28
-9 -32 c-12 -46 -45 -64 -113 -64 -31 0 -59 2 -63 5 -3 3 16 6 42 6 39 0 53 5
77 29 28 28 36 61 23 95 -11 29 -20 17 -16 -23 3 -32 0 -42 -25 -61 -22 -18
-37 -21 -73 -17 -25 2 -58 10 -75 17 l-30 13 55 8 c68 9 110 49 110 104 0 18
5 37 10 40 6 3 10 16 9 28 -1 21 -1 21 -8 2 -32 -97 -109 -144 -185 -115 -35
13 -33 39 9 91 72 89 96 254 54 361 -11 29 -41 81 -66 116 -32 46 -42 67 -34
75 13 13 82 -16 108 -46 14 -16 9 -14 -22 6 -53 36 -68 35 -19 -1 50 -36 112
-106 124 -138 6 -14 10 -47 10 -74 0 -42 -4 -52 -31 -74 -22 -19 -26 -26 -14
-26 9 0 33 16 52 35 35 35 36 36 31 108 -6 88 -42 174 -96 230 -52 54 -20 46
39 -10 112 -105 147 -254 72 -313 -29 -23 -18 -28 13 -5 53 37 71 161 35 241
-27 59 -79 114 -133 139 l-47 22 23 22 c13 12 32 38 42 57 22 40 47 44 111 15
64 -30 95 -108 57 -146 -9 -9 -14 -18 -11 -21 3 -3 15 4 26 15 28 28 28 92 1
136 -19 31 -98 75 -134 75 -9 0 -16 5 -16 11 0 17 98 6 143 -16 43 -20 66 -49
77 -98 l8 -32 1 28 c2 67 -82 134 -175 141 -47 4 -49 5 -63 48 -21 65 -49 98
-105 124 -63 30 -128 31 -216 4 -36 -11 -65 -20 -66 -20 -1 0 -15 22 -32 49
-35 56 -83 91 -192 135 -131 54 -153 71 -203 155 -25 42 -57 105 -72 141 -45
114 -144 227 -248 281 -21 11 -71 29 -110 39 -138 37 -170 50 -212 89 -29 26
-56 42 -82 46 -21 3 -47 8 -59 10 -12 3 -24 2 -27 -2z m112 -38 c37 -23 59
-45 46 -45 -6 0 -65 41 -89 62 -21 17 6 7 43 -17z m-257 -18 c30 -15 63 -37
74 -49 l19 -22 -28 17 c-65 41 -122 67 -146 66 -21 0 -18 -3 15 -13 50 -16
102 -46 108 -63 3 -7 -20 0 -54 17 -73 37 -157 60 -225 61 -44 1 -47 2 -20 10
17 4 69 7 116 5 70 -2 96 -7 141 -29z m171 -48 c26 -25 47 -51 47 -59 0 -7
-10 0 -22 16 -34 43 -58 63 -105 85 -53 25 -55 31 -5 16 20 -7 58 -32 85 -58z
m-371 11 c45 -13 176 -106 196 -140 l15 -25 -24 26 c-90 97 -229 148 -371 136
-55 -5 -89 -15 -149 -45 -44 -22 -79 -38 -79 -37 0 12 88 65 140 83 55 19 78
22 150 18 47 -3 102 -10 122 -16z m29 -49 c24 -12 35 -18 24 -15 -11 4 -49 16
-85 26 -52 15 -57 18 -24 14 22 -2 60 -13 85 -25z m-261 9 c-34 -11 -60 -11
-35 0 11 5 29 8 40 8 16 0 15 -2 -5 -8z m237 -61 c52 -20 121 -78 144 -121 9
-17 2 -14 -29 14 -89 80 -178 104 -353 94 -160 -8 -250 -46 -359 -149 -64 -61
-59 -48 10 26 123 133 413 200 587 136z m808 -4 c28 -13 66 -38 85 -55 l35
-31 -41 26 c-23 14 -77 42 -120 61 -55 25 -68 34 -44 30 19 -4 58 -17 85 -31z
m-880 -25 c27 -7 27 -8 5 -8 -14 0 -36 4 -50 8 -20 6 -21 8 -5 8 11 0 34 -4
50 -8z m737 -7 c-12 -2 -20 -9 -17 -14 3 -5 -1 -6 -9 -3 -15 6 -89 -27 -118
-53 -15 -13 -16 -13 -14 3 6 37 80 72 151 72 23 -1 24 -2 7 -5z m-1048 -18
c-10 -8 -24 -15 -29 -15 -6 0 -27 -11 -47 -25 -38 -26 -60 -33 -41 -14 13 13
115 68 127 69 6 0 1 -7 -10 -15z m1155 -1 c29 -8 51 -17 49 -19 -2 -2 -32 5
-68 15 -36 10 -58 19 -49 19 8 1 39 -6 68 -15z m-760 -44 c32 -17 74 -48 92
-67 l34 -36 -36 26 c-20 15 -41 27 -46 27 -6 0 -36 11 -66 26 -137 62 -322 18
-519 -124 -83 -60 -208 -129 -208 -115 1 5 24 19 52 33 28 14 103 62 165 107
107 77 213 131 300 153 69 17 167 5 232 -30z m745 -11 c21 -6 36 -12 34 -14
-2 -3 -20 0 -39 5 -57 17 -146 12 -191 -10 -49 -23 -60 -20 -21 5 53 35 118
39 217 14z m-1154 -4 c0 -2 -10 -9 -22 -15 -22 -11 -22 -10 -4 4 21 17 26 19
26 11z m1407 -72 c18 -29 33 -56 33 -60 0 -4 -16 17 -36 47 -20 30 -43 64 -52
75 -16 19 -16 19 2 5 11 -8 34 -38 53 -67z m-382 57 c-3 -5 -13 -10 -21 -10
-8 0 -12 -4 -9 -10 6 -9 -8 -15 -29 -11 -4 1 -19 -5 -32 -14 -26 -17 -33 -5
-9 15 14 12 81 39 98 40 5 0 5 -4 2 -10z m-815 -9 c-10 -7 -1 -11 30 -14 39
-3 36 -4 -20 -7 -36 -1 -83 -4 -105 -5 -45 -2 -189 -70 -180 -85 3 -6 -1 -7
-10 -4 -11 5 -35 -12 -76 -55 -33 -33 -55 -53 -50 -42 20 36 134 132 194 162
58 30 155 57 207 58 19 1 21 -2 10 -8z m25 -48 c-11 -3 -31 -10 -45 -16 -14
-6 -28 -11 -31 -11 -4 -1 -23 -21 -43 -44 -20 -24 -36 -41 -36 -37 0 16 -34
-23 -94 -109 -64 -91 -129 -159 -219 -231 -26 -21 -45 -40 -42 -43 3 -3 15 3
27 14 21 17 21 16 -1 -9 -45 -50 -6 -28 43 25 36 39 40 43 18 13 -60 -79 -149
-152 -257 -210 -193 -104 -325 -218 -386 -335 -21 -40 -27 -47 -23 -25 9 43
61 137 100 184 49 57 112 100 257 174 134 69 238 138 218 145 -6 2 -9 8 -5 13
9 15 -6 10 -33 -11 -14 -11 -21 -20 -15 -20 6 0 14 5 17 10 3 6 11 10 16 10
21 0 -4 -21 -69 -57 -37 -21 -78 -38 -92 -38 -14 0 -63 -15 -110 -32 -47 -18
-120 -44 -164 -59 -51 -18 -109 -49 -170 -92 -65 -46 -83 -55 -61 -32 66 70
154 118 315 171 162 52 285 114 355 175 22 20 32 33 23 30 -25 -7 -22 1 3 15
15 8 19 8 15 0 -4 -6 -3 -11 1 -11 15 0 168 163 236 252 37 47 84 100 104 117
21 17 33 31 28 31 -17 -1 -60 -28 -60 -37 0 -11 -96 -122 -170 -197 -69 -70
-130 -120 -206 -167 -62 -38 -68 -55 -9 -24 17 9 30 13 30 11 0 -11 -62 -37
-75 -33 -7 3 -16 2 -21 -3 -13 -12 -185 -82 -190 -77 -2 2 15 12 38 22 203 85
338 184 481 350 39 45 24 34 -58 -45 -95 -91 -252 -208 -335 -250 -39 -20 -12
3 65 54 39 25 140 115 225 199 95 95 176 166 211 185 58 33 146 61 189 60 20
0 21 -1 5 -5z m822 -9 c-3 -3 -12 -4 -19 -1 -8 3 -5 6 6 6 11 1 17 -2 13 -5z
m-656 -41 c13 -16 12 -17 -3 -4 -17 13 -22 21 -14 21 2 0 10 -8 17 -17z m644
-3 c4 -6 -6 -10 -22 -10 -41 0 -120 -40 -188 -95 l-60 -48 40 42 c22 23 63 57
90 76 44 29 65 36 122 44 6 0 15 -3 18 -9z m135 -20 c8 -5 11 -10 5 -10 -5 0
-17 5 -25 10 -8 5 -10 10 -5 10 6 0 17 -5 25 -10z m65 -36 l30 -26 -35 23
c-45 29 -45 29 -34 29 5 0 23 -12 39 -26z m-1167 -141 c10 -349 10 -342 -25
-413 -17 -36 -49 -81 -69 -100 l-38 -35 38 44 c21 24 50 69 64 100 22 48 26
71 26 156 0 55 -3 139 -8 186 -7 68 -2 179 7 179 1 0 3 -53 5 -117z m1383 90
c13 -16 12 -17 -3 -4 -17 13 -22 21 -14 21 2 0 10 -8 17 -17z m-1816 -23 c-3
-5 -18 -10 -33 -9 l-27 1 25 8 c35 11 42 11 35 0z m1471 -52 c20 -18 61 -70
91 -115 57 -86 123 -152 183 -183 19 -10 76 -33 125 -51 85 -31 98 -33 224
-33 82 -1 119 -4 95 -8 -61 -11 -217 -9 -276 3 -83 17 -210 83 -265 136 -27
27 -63 74 -81 106 -18 32 -54 80 -80 106 -56 59 -96 70 -171 48 -28 -8 -51
-13 -51 -10 0 12 72 32 117 33 45 0 57 -5 89 -32z m409 2 c10 -11 16 -20 13
-20 -3 0 -13 9 -23 20 -10 11 -16 20 -13 20 3 0 13 -9 23 -20z m-1521 -54 c-3
-15 -8 -25 -11 -23 -2 3 -1 17 3 31 3 15 8 25 11 23 2 -3 1 -17 -3 -31z m-354
0 c0 -2 -8 -10 -17 -17 -16 -13 -17 -12 -4 4 13 16 21 21 21 13z m905 -32 c14
-15 25 -22 25 -16 0 6 7 9 16 5 10 -4 20 1 26 12 8 13 12 14 18 5 5 -7 13 -9
21 -4 16 10 109 12 109 2 0 -3 12 -5 26 -2 57 10 75 7 68 -11 -4 -9 3 -16 21
-21 20 -5 23 -9 13 -15 -10 -7 -10 -9 2 -9 19 0 60 -63 60 -90 0 -14 4 -19 13
-14 8 5 8 3 -2 -9 -11 -14 -11 -18 3 -23 9 -3 16 -12 16 -20 0 -8 6 -14 13
-14 8 0 7 -4 -3 -10 -12 -8 -10 -10 10 -11 l25 -1 -25 -8 c-21 -7 -22 -8 -5
-10 13 -1 15 -3 6 -7 -11 -5 -11 -7 0 -14 12 -8 11 -11 -1 -19 -13 -8 -13 -10
2 -10 12 0 15 -6 10 -22 -3 -13 -10 -26 -16 -30 -6 -5 -2 -8 11 -8 26 0 42
-20 16 -21 -16 0 -16 -1 2 -9 l20 -9 -20 -1 c-13 -1 -5 -7 23 -18 28 -11 42
-22 42 -34 0 -10 -4 -18 -10 -18 -5 0 -10 3 -10 8 0 15 -248 -12 -284 -30 -14
-8 -17 -7 -10 4 5 8 -1 7 -19 -4 -14 -10 -33 -18 -42 -18 -8 0 -15 -5 -15 -10
0 -6 -5 -9 -11 -8 -6 2 -17 -16 -24 -40 -11 -37 -11 -43 4 -52 12 -8 9 -9 -14
-4 -16 3 -35 7 -42 9 -7 2 -15 0 -19 -6 -4 -6 -22 -8 -46 -4 -27 5 -38 4 -34
-3 4 -6 -2 -8 -13 -5 -16 4 -18 8 -9 23 6 10 8 29 4 45 -5 20 -10 25 -15 16
-6 -10 -10 -9 -14 3 -17 42 -183 80 -330 75 -53 -2 -97 0 -97 4 0 5 -6 5 -12
1 -7 -4 -5 2 6 14 15 17 16 25 7 36 -10 12 -9 13 9 9 18 -5 19 -3 10 21 -5 15
-6 26 0 26 8 0 22 31 25 55 3 26 18 65 25 65 5 0 12 21 16 47 4 26 13 61 20
78 18 41 110 127 142 133 42 8 165 7 183 -2 11 -5 22 -2 30 8 18 20 16 20 44
-10z m1183 -73 c52 -23 109 -53 128 -67 48 -37 93 -114 66 -114 -4 0 -14 16
-21 35 -17 48 -70 88 -181 136 -52 23 -99 46 -105 52 -12 12 -6 10 113 -42z
m-1761 17 c-3 -8 -6 -5 -6 6 -1 11 2 17 5 13 3 -3 4 -12 1 -19z m1738 -45 c87
-32 150 -75 170 -113 22 -43 19 -50 -24 -50 -52 0 -146 62 -195 128 -53 73
-53 74 49 35z m-385 -38 c19 -19 32 -35 29 -35 -3 0 -20 16 -39 35 -19 19 -32
35 -29 35 3 0 20 -16 39 -35z m-1464 -2 c-57 -107 -138 -202 -219 -257 -61
-42 -67 -49 -39 -40 16 5 16 5 -1 -6 -9 -6 -22 -8 -29 -4 -6 4 -9 3 -6 -2 3
-5 -47 -35 -111 -66 -99 -49 -111 -53 -84 -28 17 16 76 54 130 86 159 92 259
182 338 302 31 48 43 56 21 15z m1805 -50 c13 -16 12 -17 -3 -4 -10 7 -18 15
-18 17 0 8 8 3 21 -13z m496 -29 c-3 -3 -12 -4 -19 -1 -8 3 -5 6 6 6 11 1 17
-2 13 -5z m-396 -30 c17 -8 28 -18 25 -21 -3 -3 -20 4 -38 16 -39 24 -30 28
13 5z m284 6 c-27 -12 -43 -12 -25 0 8 5 22 9 30 9 10 0 8 -3 -5 -9z m182 -19
c43 -20 65 -51 77 -107 l7 -30 -69 -15 -69 -15 -43 38 c-26 23 -64 44 -97 54
-45 13 -54 19 -51 37 7 48 168 73 245 38z m-272 -11 c-11 -5 -27 -9 -35 -9
-13 -1 -13 0 0 9 8 5 24 9 35 9 l20 0 -20 -9z m-58 -16 c-3 -3 -12 -4 -19 -1
-8 3 -5 6 6 6 11 1 17 -2 13 -5z m-1970 -66 c-14 -29 -32 -62 -40 -73 -9 -11
0 14 21 56 20 42 39 75 41 73 1 -1 -8 -27 -22 -56z m-465 12 c-191 -90 -292
-184 -352 -327 -18 -43 -20 -45 -14 -13 24 140 150 270 326 335 26 10 45 21
43 25 -7 11 14 18 50 19 24 0 14 -8 -53 -39z m2498 30 c0 -5 -5 -10 -11 -10
-5 0 -7 5 -4 10 3 6 8 10 11 10 2 0 4 -4 4 -10z m370 -41 c6 -23 9 -43 6 -46
-3 -3 -7 0 -9 8 -2 8 -9 29 -15 47 -5 17 -6 32 -2 32 5 0 14 -18 20 -41z
m-357 14 c-7 -2 -19 -2 -25 0 -7 3 -2 5 12 5 14 0 19 -2 13 -5z m-348 -140
c74 -25 91 -27 230 -26 107 0 140 -2 115 -9 -62 -16 -240 -13 -310 5 -80 21
-197 79 -247 124 -34 30 -29 29 47 -16 47 -28 121 -62 165 -78z m447 96 c20
-5 40 -14 43 -19 6 -10 5 -11 -32 -15 -12 -1 -40 -5 -62 -9 -34 -5 -42 -3 -51
13 -5 11 -10 27 -10 36 0 17 26 15 112 -6z m-2537 3 c-17 -15 -131 -75 -120
-64 10 11 116 71 125 72 2 0 0 -4 -5 -8z m2399 -18 c9 -24 7 -28 -9 -14 -17
14 -20 30 -6 30 5 0 12 -7 15 -16z m-664 -14 c6 -11 8 -20 6 -20 -3 0 -10 9
-16 20 -6 11 -8 20 -6 20 3 0 10 -9 16 -20z m-2035 0 c-3 -5 -12 -10 -18 -10
-7 0 -6 4 3 10 19 12 23 12 15 0z m448 -14 c-15 -12 -39 -28 -53 -35 -21 -10
-22 -9 -6 1 10 7 31 23 45 35 14 12 30 23 34 23 5 0 -4 -11 -20 -24z m1893
-107 c27 -11 90 -31 139 -44 55 -14 78 -24 60 -24 -46 -1 -173 37 -238 71 -32
18 -77 49 -100 70 l-42 39 66 -45 c36 -25 88 -55 115 -67z m-1536 92 c0 -4 -9
-12 -20 -19 -21 -13 -23 -12 -15 11 6 13 35 20 35 8z m2089 5 c-2 -2 -26 -6
-54 -10 -34 -4 -43 -3 -30 3 19 9 93 15 84 7z m-760 -111 l45 -50 -50 48 c-27
26 -58 62 -68 80 l-17 32 23 -30 c12 -16 43 -52 67 -80z m-2209 91 c0 -2 -8
-10 -17 -17 -16 -13 -17 -12 -4 4 13 16 21 21 21 13z m2339 -93 c2 -2 0 -3 -5
-3 -5 0 -31 21 -59 46 l-50 46 55 -43 c30 -24 57 -44 59 -46z m286 77 c-25 -6
-20 -8 30 -10 33 -2 49 -5 35 -7 -13 -3 -58 -1 -100 3 -74 8 -74 8 -30 15 25
3 56 6 70 6 22 1 21 0 -5 -7z m-2201 -15 c-12 -8 -43 -23 -70 -34 -27 -11 -67
-27 -89 -36 -78 -33 -23 1 68 41 98 45 124 53 91 29z m346 11 c0 -2 -8 -10
-17 -17 -16 -13 -17 -12 -4 4 13 16 21 21 21 13z m2165 -5 c-11 -5 -36 -11
-55 -14 -35 -6 -34 -6 5 8 43 14 84 19 50 6z m215 -11 c-6 -11 -13 -20 -16
-20 -2 0 0 9 6 20 6 11 13 20 16 20 2 0 0 -9 -6 -20z m-2670 -20 c-14 -10 -54
-31 -90 -46 -132 -55 -195 -93 -246 -146 -29 -29 -59 -66 -67 -83 -12 -23 -16
-25 -17 -11 0 29 55 108 101 146 45 36 141 86 229 119 30 12 62 26 70 31 29
19 46 10 20 -10z m245 0 c-3 -5 -16 -15 -28 -21 -21 -10 -21 -9 2 10 25 23 36
27 26 11z m-795 -15 c0 -3 -11 -22 -25 -43 -34 -52 -53 -112 -61 -190 -7 -60
-8 -64 -16 -37 -20 68 12 203 60 258 14 16 42 24 42 12z m730 -20 c0 -9 -261
-135 -278 -135 -8 1 258 137 271 139 4 0 7 -1 7 -4z m-831 -72 c-27 -95 -25
-167 6 -270 6 -20 4 -23 -19 -23 -21 0 -30 7 -41 33 -38 91 -24 204 36 286 16
23 31 41 33 41 2 0 -5 -30 -15 -67z m2764 60 c-7 -2 -19 -2 -25 0 -7 3 -2 5
12 5 14 0 19 -2 13 -5z m64 -9 c-3 -3 -12 -4 -19 -1 -8 3 -5 6 6 6 11 1 17 -2
13 -5z m101 -1 c-16 -2 -40 -2 -55 0 -16 2 -3 4 27 4 30 0 43 -2 28 -4z
m-3042 -66 c-44 -44 -75 -84 -96 -128 -16 -35 -30 -56 -30 -46 0 22 30 80 65
127 21 29 112 110 123 110 2 0 -26 -29 -62 -63z m1227 56 c-7 -2 -19 -2 -25 0
-7 3 -2 5 12 5 14 0 19 -2 13 -5z m1478 -17 c65 -36 191 -66 278 -66 41 0 71
-3 68 -7 -15 -14 -177 -2 -243 18 -65 20 -182 79 -158 79 6 0 31 -11 55 -24z
m-2657 -61 c-26 -71 -30 -140 -13 -195 19 -62 19 -81 1 -71 -10 4 -23 6 -29 4
-7 -3 -13 0 -13 7 0 6 5 8 12 4 8 -5 9 -2 4 12 -15 37 -18 104 -7 149 12 47
57 155 64 155 3 0 -6 -29 -19 -65z m426 61 c0 -2 -8 -10 -17 -17 -16 -13 -17
-12 -4 4 13 16 21 21 21 13z m670 -3 c-8 -3 -22 -9 -31 -14 -11 -5 -16 -3 -16
7 0 9 11 14 31 13 17 0 24 -3 16 -6z m1147 1 c-3 -3 -12 -4 -19 -1 -8 3 -5 6
6 6 11 1 17 -2 13 -5z m-1232 -14 c-16 -4 -49 -8 -72 -9 -44 -1 -59 -13 -56
-46 2 -13 -2 -10 -8 8 -6 16 -8 31 -5 35 8 8 88 19 136 19 l35 1 -30 -8z
m1378 -7 c-7 -2 -21 -2 -30 0 -10 3 -4 5 12 5 17 0 24 -2 18 -5z m-573 -23
c-14 -11 -29 -20 -35 -20 -5 0 4 9 20 20 38 25 48 25 15 0z m620 -15 c0 -19
-2 -35 -4 -35 -2 0 -6 16 -8 35 -2 19 0 35 4 35 4 0 8 -16 8 -35z m-2480 -45
c-11 -34 -20 -73 -20 -86 0 -12 -4 -26 -10 -29 -18 -11 -11 -81 13 -116 35
-54 87 -74 187 -74 75 1 93 5 153 34 38 18 94 53 125 78 45 37 51 39 27 13
-69 -75 -226 -150 -315 -150 -76 0 -196 38 -231 72 -51 52 -57 126 -15 207 18
34 96 124 103 118 2 -2 -6 -32 -17 -67z m3381 33 c40 -37 60 -66 74 -113 5
-15 -6 -6 -26 25 -27 39 -48 56 -101 82 -38 18 -68 35 -68 38 0 3 18 5 40 5
32 0 48 -7 81 -37z m-2342 -10 c-30 -50 -33 -53 -24 -23 7 23 33 60 42 60 3 0
-6 -17 -18 -37z m89 6 c-9 -6 -9 -9 -1 -9 6 0 15 5 18 10 12 19 26 11 16 -9
-6 -10 -7 -21 -4 -25 3 -3 2 -6 -4 -6 -6 0 -13 -10 -16 -21 -4 -16 2 -30 23
-49 24 -23 55 -41 67 -41 2 0 16 -4 33 -9 18 -5 32 -5 36 1 3 5 9 7 14 4 4 -3
11 3 14 12 6 15 8 15 16 3 9 -13 10 -13 10 0 0 15 15 17 137 23 38 2 39 4 17
35 -19 28 -7 28 23 0 23 -22 31 -48 14 -48 -13 0 -7 -30 8 -40 21 -12 -7 -75
-57 -131 -50 -56 -107 -79 -194 -79 -73 0 -114 17 -172 70 -56 51 -81 114 -80
196 1 86 47 159 82 131 11 -8 11 -12 0 -18z m-110 9 c-7 -20 -58 -23 -58 -4 0
11 10 16 31 16 20 0 29 -4 27 -12z m588 0 c-10 -6 -22 -6 -26 -2 -5 5 3 10 18
11 22 1 24 0 8 -9z m834 -8 c0 -5 -4 -10 -10 -10 -5 0 -10 5 -10 10 0 6 5 10
10 10 6 0 10 -4 10 -10z m1084 -54 c15 -25 29 -60 31 -78 4 -28 4 -29 -3 -8
-16 45 -44 94 -71 124 -23 25 -23 27 -5 18 12 -7 34 -32 48 -56z m-1661 39
c-3 -9 -8 -14 -10 -11 -3 3 -2 9 2 15 9 16 15 13 8 -4z m-1213 0 c0 -2 -10 -9
-22 -15 -22 -11 -22 -10 -4 4 21 17 26 19 26 11z m1100 -11 c0 -2 -24 -3 -52
-3 -43 1 -47 3 -23 8 28 6 75 3 75 -5z m-420 -19 c0 -8 -4 -15 -10 -15 -5 0
-10 7 -10 15 0 8 5 15 10 15 6 0 10 -7 10 -15z m710 5 c0 -5 -4 -10 -10 -10
-5 0 -10 5 -10 10 0 6 5 10 10 10 6 0 10 -4 10 -10z m324 -71 l6 -54 -15 60
c-17 70 -18 86 -5 64 5 -8 11 -40 14 -70z m-614 61 c11 -6 17 -36 22 -97 8
-106 17 -152 34 -177 7 -10 10 -24 8 -31 -3 -7 0 -16 5 -20 6 -3 9 -10 6 -15
-3 -4 2 -13 10 -20 23 -19 19 -43 -5 -35 -12 4 -41 -3 -73 -18 -71 -33 -101
-39 -133 -26 -30 11 -70 -3 -87 -29 -5 -7 -12 -10 -18 -7 -5 4 -9 2 -9 -4 0
-15 50 -50 64 -45 7 3 23 0 37 -5 24 -10 24 -10 -6 -11 -28 -1 -92 -28 -70
-30 6 0 -2 -8 -18 -16 -15 -8 -31 -12 -36 -9 -5 3 -11 0 -13 -5 -2 -6 -17 -13
-33 -16 -16 -3 -32 -9 -35 -13 -3 -5 -24 -18 -47 -30 -40 -20 -73 -63 -73 -94
0 -8 -11 -22 -24 -30 -23 -16 -24 -15 -47 34 -13 27 -30 49 -37 49 -9 0 -11 7
-6 22 6 20 5 21 -9 10 -14 -12 -18 -9 -32 18 -9 17 -13 36 -9 42 4 6 3 8 -3 5
-6 -4 -20 9 -32 29 -12 19 -17 32 -11 29 6 -3 7 1 4 9 -3 9 -11 13 -17 9 -6
-3 -7 -1 -3 5 8 13 -23 74 -34 67 -4 -2 -15 42 -25 98 -20 109 -29 311 -14
301 5 -3 9 -12 9 -20 0 -35 48 -148 80 -192 91 -120 287 -147 408 -56 38 29
40 24 10 -19 -17 -24 -18 -29 -4 -18 55 45 125 181 140 275 10 59 16 73 37 83
29 15 68 16 89 3z m-470 -25 c0 -8 10 -21 22 -29 26 -19 14 -21 -30 -5 -36 12
-48 35 -24 48 19 11 32 6 32 -14z m163 -5 c4 -16 -1 -23 -19 -31 -33 -12 -68
-11 -38 1 25 10 41 30 23 30 -8 0 -8 4 1 15 15 18 26 13 33 -15z m547 16 c0
-49 85 -63 120 -19 19 24 22 25 36 11 14 -14 11 -17 -25 -32 -52 -20 -71 -20
-138 1 -50 16 -52 18 -36 35 19 22 43 24 43 4z m-606 -15 c-15 -16 -61 -23
-68 -12 -5 7 4 11 23 11 16 0 33 5 36 11 4 6 10 8 13 4 3 -3 1 -9 -4 -14z
m701 0 c-8 -14 -52 -14 -60 -1 -4 7 2 9 18 5 14 -4 28 -2 32 5 4 6 9 9 12 6 3
-2 2 -9 -2 -15z m-1550 -21 c-3 -5 -12 -10 -18 -10 -7 0 -6 4 3 10 19 12 23
12 15 0z m1395 -16 c84 -4 151 -17 147 -28 -4 -12 -21 -12 -89 -2 l-43 6 34
-15 c20 -9 71 -16 125 -18 75 -2 97 1 120 16 16 11 35 16 44 12 14 -6 13 -9
-8 -17 l-25 -9 22 -19 c20 -15 21 -20 8 -30 -20 -16 -19 -46 1 -54 8 -3 12 -2
9 4 -3 6 5 10 19 10 34 0 33 -10 -6 -47 -49 -46 -95 -65 -169 -71 -111 -8
-192 35 -243 127 -28 52 -28 53 -6 46 21 -7 22 -5 15 27 -4 18 -11 37 -16 43
-14 14 -11 37 3 29 7 -5 33 -9 58 -10z m1405 -78 c14 -28 25 -66 24 -85 l-1
-36 -9 36 c-11 49 -54 145 -68 153 -6 4 -11 13 -11 19 1 18 36 -31 65 -87z
m-2840 74 c-3 -5 -12 -10 -18 -10 -7 0 -6 4 3 10 19 12 23 12 15 0z m-60 -28
c-17 -11 -55 -28 -85 -39 -30 -12 -93 -35 -139 -52 -46 -18 -88 -30 -93 -29
-5 2 49 25 119 51 71 26 146 56 168 67 52 24 68 25 30 2z m2343 -70 c57 -77
143 -233 156 -282 4 -14 -19 25 -50 85 -51 101 -84 153 -152 243 -13 17 -22
32 -18 32 3 0 32 -35 64 -78z m-2903 -5 c4 -24 20 -53 42 -78 37 -41 33 -56
-5 -16 -29 31 -52 90 -51 129 1 34 3 29 14 -35z m2542 -36 c-6 -97 -31 -215
-52 -247 -8 -12 -25 -23 -38 -26 l-24 -5 18 66 c11 36 33 121 50 188 37 144
55 153 46 24z m-60 57 c-3 -7 -5 -2 -5 12 0 14 2 19 5 13 2 -7 2 -19 0 -25z
m700 -36 c28 -24 55 -42 60 -41 4 1 20 -22 35 -52 29 -56 39 -95 12 -46 -8 15
-19 25 -24 22 -6 -4 -7 1 -3 11 4 11 3 15 -5 10 -6 -3 -15 1 -20 11 -5 9 -41
48 -78 87 -72 72 -66 72 23 -2z m-266 -44 c5 -10 8 -18 5 -18 -6 0 -76 96 -76
105 0 9 57 -62 71 -87z m319 19 c0 -5 -13 5 -30 23 -16 18 -30 35 -30 38 0 3
14 -7 30 -23 17 -16 30 -33 30 -38z m-2283 -19 c-2 -13 -4 -5 -4 17 -1 22 1
32 4 23 2 -10 2 -28 0 -40z m2144 -97 c58 -111 159 -220 242 -261 34 -17 51
-28 37 -24 -107 28 -211 131 -303 301 -37 67 -67 126 -67 130 0 13 45 -59 91
-146z m-2931 93 c0 -2 -9 0 -20 6 -11 6 -20 13 -20 16 0 2 9 0 20 -6 11 -6 20
-13 20 -16z m47 20 c-3 -3 -12 -4 -19 -1 -8 3 -5 6 6 6 11 1 17 -2 13 -5z
m794 -144 c22 -25 29 -29 26 -15 -18 76 -18 78 -5 64 33 -35 58 -99 58 -147 0
-101 -56 -89 -109 23 -36 76 -40 94 -9 46 12 -19 24 -29 26 -23 2 7 -5 24 -15
39 -28 42 -53 101 -53 125 0 15 8 7 26 -27 14 -28 39 -66 55 -85z m1429 97 c0
-2 -10 -12 -22 -23 l-23 -19 19 23 c18 21 26 27 26 19z m241 -59 c-11 -18 -28
-48 -36 -65 -8 -18 -17 -33 -20 -33 -8 0 13 46 39 85 14 21 26 42 26 48 0 6 3
8 6 4 4 -3 -3 -21 -15 -39z m-305 7 c-11 -8 -25 -15 -30 -15 -6 1 0 7 14 15
32 19 40 18 16 0z m-237 -90 c25 -9 83 -19 127 -22 l82 -6 2 -51 c5 -125 3
-142 -21 -191 -14 -27 -29 -50 -35 -52 -6 -2 -30 15 -55 38 -24 23 -49 42 -54
43 -6 1 -24 11 -40 22 -17 12 -41 25 -55 29 -14 4 -37 14 -53 22 -26 13 -26
15 -11 37 20 31 20 109 0 165 -9 24 -16 46 -16 48 0 3 19 -11 41 -31 23 -19
62 -42 88 -51z m124 28 c83 4 87 4 65 -12 -33 -23 -140 -20 -198 6 -75 35 -91
54 -20 26 57 -23 74 -25 153 -20z m-80 30 c-7 -2 -19 -2 -25 0 -7 3 -2 5 12 5
14 0 19 -2 13 -5z m114 1 c-3 -3 -12 -4 -19 -1 -8 3 -5 6 6 6 11 1 17 -2 13
-5z m-2088 -91 c0 -41 2 -78 5 -81 4 -3 6 19 6 49 0 30 3 64 6 77 13 46 19 19
16 -71 -2 -52 1 -110 6 -129 l10 -35 -40 9 c-79 17 -99 40 -118 130 -8 40 -8
63 -1 75 8 14 10 10 5 -17 l-5 -35 16 35 c23 50 53 79 75 73 16 -4 19 -15 19
-80z m3261 32 c-7 -25 -16 -48 -20 -50 -4 -2 0 20 9 50 9 29 18 52 20 50 2 -3
-2 -25 -9 -50z m-3330 41 c0 -2 -8 -10 -17 -17 -16 -13 -17 -12 -4 4 13 16 21
21 21 13z m2858 -80 c37 -40 48 -56 39 -56 -1 0 -34 32 -72 72 -39 39 -56 62
-39 50 16 -11 49 -41 72 -66z m-2674 -5 c-13 -40 -25 -97 -25 -125 -2 -46 -2
-48 -8 -16 -9 47 3 119 28 176 31 68 33 51 5 -35z m193 26 c-14 -23 -35 -69
-46 -102 -21 -58 -21 -58 -17 -18 6 44 24 87 58 136 30 42 33 32 5 -16z m204
20 c-10 -9 -11 -8 -5 6 3 10 9 15 12 12 3 -3 0 -11 -7 -18z m-20 -44 c-12 -20
-14 -14 -5 12 4 9 9 14 11 11 3 -2 0 -13 -6 -23z m1941 -34 c-12 -20 -22 -27
-26 -20 -4 6 3 25 15 43 28 39 38 19 11 -23z m-2222 20 c0 8 3 11 7 7 4 -3 8
-32 9 -64 2 -39 0 -51 -6 -37 l-9 20 -1 -20 c-1 -15 -5 -12 -16 14 -16 36 -10
106 7 80 7 -12 9 -12 9 0z m394 -119 c-13 -163 -77 -236 -262 -299 -34 -11
-72 -21 -85 -20 -12 0 5 8 38 18 82 24 177 74 218 114 53 54 71 101 75 201 3
57 7 84 13 75 5 -8 6 -48 3 -89z m2280 50 c5 -17 4 -20 -2 -10 -5 8 -13 26
-16 40 -5 17 -4 20 2 10 5 -8 13 -26 16 -40z m-2723 -3 c-13 -13 -15 1 -4 30
7 17 8 17 11 -1 2 -10 -1 -23 -7 -29z m2690 -72 c17 -38 36 -110 48 -181 44
-255 73 -319 181 -397 l25 -17 -31 14 c-34 16 -95 80 -117 123 -24 46 -45 129
-71 277 -17 96 -34 157 -53 197 -16 32 -25 55 -20 52 5 -3 22 -34 38 -68z
m-2230 -87 c-24 -111 -113 -183 -296 -240 -55 -17 -94 -33 -88 -35 7 -3 -13
-22 -45 -43 -31 -21 -72 -53 -90 -71 -43 -42 -70 -49 -43 -11 28 39 57 63 72
60 7 -2 13 3 14 11 0 8 6 16 14 19 9 3 11 0 6 -8 -5 -9 -4 -11 4 -6 6 4 9 11
6 16 -3 4 1 11 7 13 9 4 9 6 2 6 -22 2 -109 -66 -151 -117 -72 -88 -91 -202
-54 -321 23 -76 71 -150 125 -197 22 -20 31 -32 20 -26 -38 20 -113 112 -146
179 -27 55 -33 80 -36 153 -5 94 9 142 64 222 27 38 123 110 164 123 14 4 30
11 35 15 6 4 62 24 125 45 136 43 186 70 234 126 35 41 54 100 58 177 l1 37 4
-38 c3 -21 -1 -61 -6 -89z m2448 -112 c89 -96 192 -245 205 -296 4 -14 -8 2
-26 35 -54 97 -92 148 -199 262 -56 59 -112 129 -125 155 -35 69 -29 69 15 2
21 -32 79 -104 130 -158z m-2936 174 c3 -11 1 -18 -4 -14 -5 3 -9 12 -9 20 0
20 7 17 13 -6z m3120 3 c-7 -2 -21 -2 -30 0 -10 3 -4 5 12 5 17 0 24 -2 18 -5z
m54 1 c-3 -3 -12 -4 -19 -1 -8 3 -5 6 6 6 11 1 17 -2 13 -5z m-2774 -66 c-26
-46 -106 -103 -183 -133 -36 -14 -136 -44 -223 -66 -241 -61 -337 -119 -390
-238 -22 -49 -28 -133 -13 -190 11 -44 -9 -33 -29 16 -49 118 28 278 171 354
55 30 163 62 269 79 177 30 299 83 366 159 24 28 46 50 47 51 2 0 -5 -15 -15
-32z m1087 4 c8 0 38 1 65 1 38 1 67 -6 119 -31 38 -18 66 -35 63 -38 -3 -3
-35 8 -71 26 -53 26 -72 31 -105 26 -23 -3 -59 -9 -82 -12 -25 -4 -45 -2 -52
5 -17 17 -32 14 -107 -19 -64 -28 -112 -39 -96 -22 4 4 40 21 79 38 55 23 84
30 122 28 28 -1 57 -2 65 -2z m2184 -89 c-16 -15 -40 -41 -52 -57 -12 -16 -24
-27 -27 -24 -3 2 18 30 46 62 28 31 54 55 57 52 2 -3 -8 -18 -24 -33z m-3744
2 c-17 -21 -64 -45 -87 -45 -9 0 7 15 37 33 58 35 72 38 50 12z m1563 -27 c15
0 52 1 83 2 31 1 59 -1 62 -5 3 -3 -8 -20 -25 -37 -29 -29 -37 -31 -90 -30
-72 2 -115 -6 -107 -20 5 -7 -9 -9 -42 -4 -35 5 -45 4 -34 -3 13 -9 12 -11 -5
-11 -17 0 -17 -2 -5 -10 8 -5 11 -10 5 -10 -5 0 15 -22 45 -50 30 -27 49 -50
43 -50 -7 0 -10 -7 -6 -17 5 -15 3 -16 -8 -5 -18 17 -30 15 -23 -3 5 -11 1
-14 -15 -12 -11 2 -23 6 -27 9 -3 4 -12 4 -18 2 -7 -3 -19 2 -26 11 -7 8 -19
15 -26 15 -8 0 -14 5 -14 11 0 6 -7 9 -15 6 -8 -4 -17 -2 -21 4 -3 6 -12 8
-20 5 -9 -3 -11 0 -7 11 5 12 3 14 -7 8 -9 -5 -11 -4 -6 4 4 6 1 17 -6 25 -52
55 -59 105 -19 137 20 17 33 19 77 13 33 -4 59 -2 71 5 12 8 43 10 88 6 39 -4
82 -7 98 -7z m327 -18 c22 -22 24 -37 11 -73 -13 -34 -60 -79 -73 -71 -7 4 -8
2 -4 -4 4 -7 -7 -19 -31 -29 -21 -10 -40 -21 -44 -25 -3 -5 -25 -12 -50 -16
-45 -9 -46 -9 -46 19 0 19 8 31 26 41 39 20 62 47 65 75 2 14 9 29 17 35 10 7
5 8 -16 3 l-30 -6 24 17 c36 26 94 53 114 54 9 0 26 -9 37 -20z m1289 -291
c17 -34 31 -69 30 -78 0 -9 -5 -2 -11 14 -18 50 -67 116 -157 210 -48 50 -97
106 -110 125 -12 19 31 -20 97 -87 87 -88 128 -138 151 -184z m111 125 c0 -10
-14 0 -79 56 -38 33 -80 74 -92 92 -13 19 18 -5 74 -56 53 -49 97 -90 97 -92z
m-3400 157 c0 -5 -17 -12 -37 -16 -61 -11 -138 -50 -188 -96 -55 -50 -112
-129 -94 -129 8 0 4 -9 -8 -22 -34 -39 -72 -135 -84 -211 -15 -95 -23 -100
-16 -9 6 72 40 166 73 203 8 9 17 29 20 44 11 63 106 165 192 206 66 33 142
48 142 30z m-70 -85 c0 -3 -20 -15 -45 -27 -24 -12 -65 -40 -91 -61 -48 -39
-84 -63 -84 -54 0 2 16 14 35 26 20 12 34 29 33 37 -2 10 19 27 57 48 54 29
95 43 95 31z m2342 -109 c-5 -116 -22 -279 -32 -296 -19 -33 -6 265 15 358 11
44 20 10 17 -62z m-2277 44 c-33 -15 -85 -50 -115 -77 -30 -26 -44 -35 -30
-19 48 56 85 85 135 104 73 29 79 24 10 -8z m675 -10 c0 -9 -111 -86 -160
-111 -39 -20 -21 -5 61 48 42 28 80 55 83 61 9 13 16 14 16 2z m-560 -6 c0 -2
-34 -27 -76 -54 -42 -28 -70 -43 -63 -34 11 13 127 93 137 93 1 0 2 -2 2 -5z
m2614 -207 c9 -32 16 -60 16 -63 0 -3 8 -13 18 -23 9 -10 37 -42 62 -71 52
-63 131 -120 255 -186 94 -50 187 -121 207 -158 6 -12 -10 -1 -36 26 -33 32
-79 62 -146 94 -55 25 -97 49 -95 53 2 4 -6 6 -18 6 -12 -1 -21 4 -20 11 2 7
-3 10 -10 7 -18 -7 -110 54 -101 68 4 6 3 8 -4 4 -6 -3 -29 15 -51 41 -41 48
-52 70 -28 58 6 -4 2 2 -10 12 -31 25 -73 170 -71 248 l1 60 7 -65 c4 -36 14
-91 24 -122z m-1761 130 c-33 -35 -52 -68 -58 -98 -2 -10 -25 -45 -51 -77 -82
-100 -174 -251 -280 -458 -117 -227 -196 -400 -228 -495 -21 -60 -24 -65 -50
-63 -16 1 -31 4 -34 7 -14 15 167 414 284 629 134 243 276 443 385 541 59 53
77 61 32 14z m-537 4 c-2 -4 -29 -19 -58 -31 -151 -67 -205 -94 -228 -114
l-25 -22 25 28 c26 29 201 118 288 146 2 1 1 -3 -2 -7z m-704 -36 c-9 -19 -20
-32 -25 -29 -7 4 29 63 38 63 3 0 -3 -15 -13 -34z m3257 -34 c59 -44 134 -81
259 -127 116 -42 204 -101 252 -166 73 -101 90 -230 45 -328 -14 -30 -28 -51
-31 -48 -3 3 5 25 17 49 18 34 23 60 23 123 -1 70 -4 88 -32 142 -60 117 -141
170 -362 238 -41 12 -84 26 -95 29 -13 5 -12 2 5 -8 28 -17 19 -22 -11 -5 -11
5 -17 14 -14 19 3 5 -9 16 -27 24 -47 21 -88 58 -93 84 -5 26 -2 24 64 -26z
m-3066 -16 c-10 -13 -20 -22 -22 -20 -4 4 29 44 36 44 2 0 -4 -11 -14 -24z
m159 -5 c-9 -16 -18 -28 -21 -26 -4 5 27 55 34 55 2 0 -4 -13 -13 -29z m-387
-83 c0 -93 3 -107 27 -150 15 -27 23 -48 18 -48 -25 0 -75 175 -65 227 11 54
16 73 18 73 1 0 2 -46 2 -102z m3876 20 c21 -17 53 -67 47 -74 -3 -2 -31 3
-62 13 l-56 17 0 43 0 44 28 -16 c15 -8 34 -20 43 -27z m-4092 28 c-10 -9 -79
-14 -74 -5 4 5 22 9 42 9 20 0 34 -2 32 -4z m3123 -104 c76 -109 245 -392 234
-392 -2 0 -28 39 -57 88 -28 48 -72 119 -97 157 -25 39 -55 84 -66 102 -11 17
-24 30 -27 27 -4 -2 -10 9 -14 26 -4 16 -10 30 -14 30 -4 0 -13 12 -19 26 -20
42 4 18 60 -64z m-3182 68 c13 -9 13 -10 0 -10 -8 0 -22 5 -30 10 -13 9 -13
10 0 10 8 0 22 -5 30 -10z m3542 -38 c-9 -3 -82 36 -82 44 0 2 21 -6 46 -18
25 -13 41 -24 36 -26z m-2037 -50 c-3 -37 -12 -105 -20 -151 -8 -46 -16 -134
-16 -195 -1 -79 -4 -99 -9 -71 -6 36 -15 -230 -10 -307 1 -27 -40 -75 -135
-153 -37 -31 -37 -31 -114 -21 -42 5 -103 10 -136 10 -56 1 -85 12 -85 33 0
13 81 206 126 298 130 273 324 597 364 610 11 3 20 11 20 16 0 6 4 7 10 4 6
-4 8 -33 5 -73z m2087 -21 c79 -27 129 -55 162 -90 35 -36 24 -42 -13 -8 -15
13 -44 34 -66 46 l-40 23 35 -31 c49 -43 32 -38 -49 13 -38 25 -71 43 -73 41
-1 -2 -12 9 -23 23 -12 17 -13 22 -3 14 8 -6 40 -21 70 -31z m308 -57 c25 -26
16 -21 -27 16 -35 30 -63 56 -63 58 0 8 58 -39 90 -74z m240 60 l25 -15 -25 7
c-14 3 -29 10 -34 15 -16 14 6 10 34 -7z m61 -4 c11 0 18 -4 15 -9 -3 -5 25
-30 63 -56 50 -34 76 -60 95 -95 37 -68 32 -71 -11 -9 -20 30 -40 56 -46 58
-5 2 -24 17 -43 33 -19 17 -38 28 -41 24 -10 -9 -43 25 -36 37 4 6 0 8 -8 5
-10 -4 -15 1 -16 16 0 11 1 15 4 9 3 -7 14 -13 24 -13z m-3951 -18 c0 -11 -39
-12 -45 -1 -4 5 5 9 19 9 14 0 26 -4 26 -8z m-265 -10 c-6 -4 -26 -21 -45 -37
-20 -17 -28 -22 -20 -10 18 26 52 54 65 55 6 0 6 -3 0 -8z m4185 -64 c0 -12
-17 -9 -28 5 -5 6 -13 23 -16 37 -7 24 -6 24 18 -5 14 -16 26 -33 26 -37z
m-3933 -7 c4 -20 6 -39 5 -43 -1 -5 2 -8 7 -8 11 0 26 -59 17 -67 -3 -3 -11 7
-18 23 -7 16 -16 32 -21 35 -9 7 -26 73 -27 103 0 32 29 -1 37 -43z m248 -20
c22 -12 46 -21 54 -21 8 0 12 -3 8 -6 -18 -18 -167 70 -167 98 0 7 15 -2 33
-19 17 -17 50 -40 72 -52z m373 -46 l37 -40 -38 35 c-38 34 -77 97 -77 122 0
7 10 -7 21 -32 11 -25 37 -63 57 -85z m-681 93 c-3 -8 -6 -5 -6 6 -1 11 2 17
5 13 3 -3 4 -12 1 -19z m110 -14 c22 -34 22 -64 -1 -64 -7 0 -18 17 -24 39
-22 71 -11 82 25 25z m3946 -13 c57 -39 125 -114 144 -159 9 -22 13 -50 9 -73
-9 -54 -96 -214 -157 -287 -44 -53 -56 -62 -76 -57 -39 9 -137 59 -140 71 -3
8 27 14 89 18 152 11 140 5 162 72 13 40 19 87 19 146 0 84 -2 91 -49 185 -26
54 -50 101 -52 106 -7 14 10 7 51 -22z m-83 -31 c0 -5 -2 -10 -4 -10 -3 0 -8
5 -11 10 -3 6 -1 10 4 10 6 0 11 -4 11 -10z m-3791 -29 c11 -7 8 -22 -13 -84
-18 -53 -26 -98 -27 -154 l-2 -78 -10 90 c-7 67 -7 106 3 155 17 86 19 90 49
71z m470 -25 c-3 -3 -11 5 -18 17 -13 21 -12 21 5 5 10 -10 16 -20 13 -22z
m3409 -74 c23 -55 39 -157 22 -147 -5 3 -10 22 -10 42 0 32 -43 143 -56 143
-2 0 -2 -22 2 -49 7 -52 -16 -170 -42 -223 -18 -36 -52 -58 -88 -58 l-30 0 41
34 c25 22 50 59 68 98 25 55 29 75 29 156 l0 92 22 -21 c12 -12 31 -42 42 -67z
m-3803 -10 c-35 -52 -43 -127 -21 -184 17 -41 17 -42 0 -25 -13 12 -19 37 -22
87 -4 61 -1 75 22 115 15 25 31 45 37 45 5 0 -2 -17 -16 -38z m2647 -116 c6 4
8 2 5 -3 -4 -6 0 -16 8 -23 8 -7 15 -9 16 -4 1 5 4 -2 8 -16 5 -16 13 -24 24
-22 9 2 17 -2 17 -8 0 -18 20 -11 21 8 0 14 2 14 9 -3 5 -11 9 -15 9 -9 1 7
12 9 28 6 20 -4 25 -2 21 10 -4 8 0 15 7 15 7 0 11 -6 8 -14 -3 -7 0 -13 6
-13 6 0 11 -8 11 -17 1 -17 1 -17 11 0 6 9 15 15 20 12 5 -4 7 -10 4 -15 -3
-5 -1 -19 5 -29 20 -38 22 -111 4 -160 -19 -53 -86 -115 -116 -108 -25 7 -23
0 9 -29 15 -14 19 -22 10 -18 -9 3 -17 2 -17 -3 0 -10 39 -36 58 -39 8 -1 17
-6 20 -10 4 -4 -1 -4 -10 -1 -9 3 -18 1 -21 -6 -4 -14 -73 62 -71 80 1 7 -2
13 -7 13 -5 0 -9 -5 -9 -10 0 -6 -12 -4 -29 5 -16 8 -54 24 -85 36 l-56 20 2
47 1 47 4 -42 c4 -38 8 -43 39 -53 20 -7 38 -10 40 -7 3 3 -11 10 -30 17 -34
11 -36 14 -35 53 1 23 5 69 9 102 5 46 8 52 10 25 3 -48 8 -23 16 95 4 55 9
92 11 82 3 -9 9 -14 15 -11z m395 -61 c21 -42 1 -19 -26 30 -13 22 -15 31 -6
20 9 -11 23 -33 32 -50z m-26 -37 c16 -32 27 -58 24 -58 -4 0 -66 113 -73 135
-7 21 20 -22 49 -77z m-306 52 c3 -5 1 -10 -4 -10 -6 0 -11 5 -11 10 0 6 2 10
4 10 3 0 8 -4 11 -10z m-2160 -89 c-26 -52 -41 -71 -55 -71 -13 0 -18 5 -14
15 10 24 -4 63 -23 67 -11 2 9 17 52 40 39 20 71 33 73 28 2 -4 -13 -40 -33
-79z m2545 -21 c17 -33 28 -60 25 -60 -2 0 -18 27 -35 60 -17 33 -28 60 -25
60 2 0 18 -27 35 -60z m-2657 -18 c-7 -7 -15 -12 -19 -12 -7 2 -33 -32 -34
-44 0 -5 7 -3 15 4 27 22 16 5 -16 -26 -17 -16 -29 -24 -27 -19 3 10 -4 15
-23 15 -5 0 -7 -6 -3 -12 4 -7 4 -10 0 -6 -4 3 -51 -14 -103 -40 -55 -27 -110
-46 -129 -46 -19 0 -29 -3 -23 -6 5 -4 -24 -17 -66 -29 -42 -12 -81 -19 -87
-15 -6 4 -8 3 -5 -3 9 -14 -21 -25 -46 -17 -12 4 -17 2 -13 -4 6 -10 -23 -26
-32 -17 -3 3 1 5 8 5 7 0 11 2 8 5 -9 10 -38 -7 -31 -18 4 -6 -2 -8 -15 -5
-12 4 -20 3 -17 -2 7 -11 -24 -22 -37 -13 -7 3 -8 1 -4 -5 4 -7 3 -12 -1 -12
-5 0 -26 -14 -47 -32 -49 -40 -66 -43 -66 -12 0 16 18 38 62 75 65 54 132 88
368 189 74 32 173 75 220 95 140 61 153 64 165 40 8 -15 8 -23 -2 -33z m2851
-3 c-3 -5 -10 -7 -15 -3 -5 3 -7 10 -3 15 3 5 10 7 15 3 5 -3 7 -10 3 -15z
m451 1 c-3 -5 -23 -9 -43 -9 l-37 2 40 7 c22 4 41 8 43 9 2 0 0 -3 -3 -9z
m-361 -26 c9 -3 14 -10 11 -15 -7 -10 -35 0 -35 12 0 11 3 11 24 3z m32 -81
c-5 -5 -76 24 -76 31 0 2 18 -3 40 -11 22 -9 38 -18 36 -20z m55 20 c13 -16
12 -17 -3 -4 -17 13 -22 21 -14 21 2 0 10 -8 17 -17z m-3161 -48 c0 -2 -13
-11 -30 -20 -38 -19 -40 -11 -2 9 31 17 32 18 32 11z m2370 -99 c25 -11 45
-26 45 -33 0 -7 7 -18 15 -25 12 -11 12 -11 1 5 -7 9 -9 17 -4 17 15 0 32 -21
27 -34 -3 -7 8 -23 23 -36 l28 -25 -25 30 -25 30 27 -24 c15 -13 25 -28 22
-33 -3 -5 0 -16 7 -25 8 -9 -31 17 -86 57 -55 39 -117 81 -138 91 -21 11 -35
24 -31 30 8 13 56 3 114 -25z m715 -6 c4 -6 10 -8 15 -5 5 3 11 1 15 -5 3 -5
13 -10 22 -10 8 0 26 -9 40 -20 15 -12 35 -18 49 -16 13 3 26 0 30 -5 3 -5 10
-7 16 -3 5 3 2 -9 -7 -27 -9 -20 -10 -28 -3 -19 18 21 42 25 35 6 -4 -9 -1
-15 5 -13 6 1 13 -4 16 -12 3 -8 0 -11 -7 -7 -12 8 -14 4 -5 -18 8 -20 34 -9
27 12 -4 14 -3 15 5 2 6 -8 8 -18 6 -22 -3 -4 -1 -8 4 -8 6 0 9 -6 9 -12 -2
-30 26 -107 37 -102 6 3 3 -1 -6 -8 -11 -9 -18 -31 -19 -59 -3 -51 -17 -78
-30 -57 -6 9 -9 7 -9 -7 0 -11 -5 -27 -11 -35 -8 -12 -9 -9 -5 13 8 33 -1 36
-14 5 -6 -17 -8 -10 -5 27 l5 50 -15 -45 -15 -45 5 40 4 40 -12 -32 c-17 -44
-28 -53 -17 -13 5 19 7 36 5 39 -3 2 -5 -2 -6 -10 0 -8 -4 -6 -10 6 -7 15 -8
12 -4 -15 4 -25 3 -29 -4 -15 -6 16 -9 17 -13 5 -3 -8 -3 -1 -1 15 l4 30 -15
-25 c-9 -14 -15 -19 -16 -12 0 8 -5 10 -12 6 -7 -5 -9 -2 -6 7 3 8 9 25 13 39
7 24 7 24 -9 5 -15 -19 -16 -19 -6 8 14 40 12 46 -6 17 -15 -25 -15 -25 -8 -1
4 14 2 21 -4 17 -14 -8 -22 43 -11 71 6 16 5 22 -4 20 -7 -1 -11 8 -9 24 2 14
-4 31 -12 39 -9 7 -16 19 -16 27 0 8 -9 26 -19 40 -24 30 -18 61 8 41 14 -12
15 -11 2 5 -10 13 -17 14 -27 7 -10 -9 -11 -7 -7 9 6 23 18 27 28 11z m-2385
-39 c-13 -9 -53 -37 -89 -64 -35 -26 -75 -50 -87 -53 -23 -6 -262 12 -297 23
-12 3 -17 12 -15 26 3 19 9 22 48 21 101 -3 241 -17 246 -25 3 -5 -3 -9 -13
-9 -10 0 -24 -4 -31 -8 -20 -13 59 -7 96 8 20 7 31 18 28 25 -6 16 69 80 95
81 11 1 23 4 27 8 3 4 8 2 11 -5 2 -7 -7 -20 -19 -28z m3040 -46 c11 -18 20
-41 19 -51 0 -12 -6 -7 -16 16 -8 19 -24 45 -36 58 -17 18 -18 22 -4 17 9 -4
26 -22 37 -40z m-3615 -75 c-3 -5 -11 -10 -16 -10 -6 0 -7 5 -4 10 3 6 11 10
16 10 6 0 7 -4 4 -10z m3271 -42 c3 -4 -1 -5 -10 -4 -8 1 -18 5 -22 8 -3 4 1
5 10 4 8 -1 18 -5 22 -8z m-2978 -5 c-10 -2 -26 -2 -35 0 -10 3 -2 5 17 5 19
0 27 -2 18 -5z m-1076 -159 c54 -187 87 -308 83 -312 -1 -2 -10 15 -19 38 -19
47 -31 53 -22 10 13 -67 -6 -21 -56 135 -29 90 -54 163 -56 161 -2 -2 6 -46
18 -97 11 -52 22 -101 24 -110 2 -9 0 -22 -4 -29 -5 -8 -13 9 -20 44 -6 32
-14 55 -18 52 -3 -4 -11 6 -17 21 -11 25 -13 20 -19 -57 -4 -51 -3 -99 4 -120
5 -19 10 -48 10 -63 0 -16 4 -26 9 -23 5 4 7 -3 4 -14 -3 -11 -1 -20 4 -20 6
0 10 -12 10 -28 0 -15 3 -47 8 -72 9 -54 -6 -45 -25 15 -7 22 -16 42 -20 45
-4 3 -22 25 -41 50 l-34 45 -2 -54 c-2 -30 -7 -57 -11 -60 -5 -3 -14 -19 -20
-36 -10 -28 -10 -28 -11 -5 -2 45 20 244 36 325 29 154 60 241 99 275 20 17
38 29 41 27 2 -3 23 -67 45 -143z m4492 106 c37 -45 99 -271 81 -300 -3 -5 -1
-11 5 -15 5 -3 10 -20 10 -37 0 -35 -10 -33 -14 3 -1 13 -5 31 -9 39 -3 8 -13
58 -22 110 -24 142 -34 171 -67 202 -17 15 -26 28 -20 28 6 0 22 -14 36 -30z
m-4057 -387 c-3 -10 -5 -4 -5 12 0 17 2 24 5 18 2 -7 2 -21 0 -30z m47 -74 c3
-30 3 -45 -1 -34 -3 11 -10 23 -15 26 -5 3 -12 26 -15 50 -6 40 -5 42 10 28 9
-9 18 -40 21 -70z m4124 -69 c-1 -28 -2 -25 -8 15 -5 28 -8 68 -8 90 1 35 2
33 8 -15 5 -30 8 -71 8 -90z m-4619 -100 c0 -9 -4 -8 -9 5 -8 19 -9 19 -9 1
-1 -11 -4 -17 -7 -13 -4 3 -3 19 1 34 7 26 8 26 15 8 5 -11 9 -27 9 -35z m26
-38 c-3 -3 -5 0 -5 7 0 7 -4 10 -9 7 -5 -4 -7 4 -3 16 l5 22 9 -24 c5 -12 6
-25 3 -28z"/>
<path d="M1768 3654 c-38 -20 -36 -28 2 -9 17 9 30 18 30 20 0 7 -1 6 -32 -11z"/>
<path d="M1704 3614 c-18 -14 -18 -15 4 -4 12 6 22 13 22 15 0 8 -5 6 -26 -11z"/>
<path d="M2475 3070 c-3 -5 -16 -11 -28 -11 -17 -1 -18 -2 -5 -6 10 -2 28 3
40 11 12 9 17 16 11 16 -7 0 -15 -4 -18 -10z"/>
<path d="M3670 1010 c0 -5 5 -10 11 -10 5 0 7 5 4 10 -3 6 -8 10 -11 10 -2 0
-4 -4 -4 -10z"/>
<path d="M1272 1264 c14 -14 21 -15 30 -6 8 8 9 12 1 12 -6 0 -20 3 -30 6 -17
7 -17 6 -1 -12z"/>
<path d="M1215 1250 c3 -5 8 -10 11 -10 2 0 4 5 4 10 0 6 -5 10 -11 10 -5 0
-7 -4 -4 -10z"/>
<path d="M1166 1229 c-26 -21 -51 -57 -44 -65 10 -9 114 29 131 48 21 25 14
37 -10 16 -10 -8 -31 -18 -46 -22 -28 -7 -28 -7 -11 19 20 30 15 32 -20 4z"/>
<path d="M4501 714 c0 -11 3 -14 6 -6 3 7 2 16 -1 19 -3 4 -6 -2 -5 -13z"/>
<path d="M4411 654 c0 -11 3 -14 6 -6 3 7 2 16 -1 19 -3 4 -6 -2 -5 -13z"/>
<path d="M1498 913 c7 -3 16 -2 19 1 4 3 -2 6 -13 5 -11 0 -14 -3 -6 -6z"/>
<path d="M1640 890 c-9 -6 -10 -10 -3 -10 6 0 15 5 18 10 8 12 4 12 -15 0z"/>
<path d="M940 2466 c21 -26 100 -59 85 -36 -3 6 -14 10 -24 10 -10 0 -31 10
-47 22 -23 18 -26 18 -14 4z"/>
<path d="M1070 2444 c-24 -9 -29 -13 -14 -13 11 -1 29 6 40 14 22 17 20 17
-26 -1z"/>
<path d="M352 1560 c0 -14 2 -19 5 -12 2 6 2 18 0 25 -3 6 -5 1 -5 -13z"/>
<path d="M2730 859 c0 -5 9 -9 20 -9 11 0 20 2 20 4 0 2 -9 6 -20 9 -11 3 -20
1 -20 -4z"/>
<path d="M2300 810 c6 -11 13 -20 16 -20 2 0 0 9 -6 20 -6 11 -13 20 -16 20
-2 0 0 -9 6 -20z"/>
<path d="M1751 760 c-30 -22 -60 -40 -68 -40 -15 0 -18 -16 -3 -25 9 -6 133
76 146 96 13 21 -25 5 -75 -31z"/>
<path d="M2020 790 c-107 -19 -173 -67 -211 -154 -19 -43 -23 -69 -23 -166 -1
-129 13 -174 74 -244 50 -57 102 -79 196 -84 102 -5 165 14 227 69 68 59 82
106 82 264 0 114 -3 135 -22 170 -60 112 -189 170 -323 145z m140 -129 c59
-31 72 -65 72 -191 -1 -89 -4 -117 -19 -142 -60 -103 -203 -101 -264 5 -21 37
-24 54 -24 142 0 86 3 105 23 136 12 20 37 44 55 53 43 21 115 20 157 -3z"/>
<path d="M2011 611 c-30 -30 -44 -97 -38 -176 9 -109 51 -148 135 -126 32 9
48 21 67 52 l26 40 -18 96 c-11 62 -24 104 -35 115 -26 26 -111 25 -137 -1z"/>
<path d="M2692 781 c-120 -41 -171 -144 -122 -245 27 -55 73 -84 186 -117 103
-30 134 -49 134 -85 0 -55 -39 -84 -112 -84 -51 0 -95 25 -133 74 l-27 35 -49
-37 c-27 -20 -49 -40 -49 -44 0 -5 18 -28 40 -52 97 -105 270 -122 392 -39 70
47 98 153 62 230 -25 52 -74 82 -186 115 -114 33 -138 48 -138 88 0 42 33 65
94 65 43 0 60 -6 102 -36 l50 -36 37 32 c20 18 37 37 37 42 0 23 -81 83 -131
97 -68 21 -121 20 -187 -3z"/>
<path d="M1277 774 c-64 -20 -129 -84 -151 -151 -19 -56 -23 -237 -7 -291 14
-46 46 -96 85 -130 80 -70 233 -82 335 -27 59 32 114 89 109 113 -2 8 -21 26
-43 39 -63 37 -68 38 -79 18 -75 -134 -230 -121 -272 23 -21 72 -15 186 12
233 54 92 170 104 243 25 30 -32 34 -32 91 -4 25 13 46 24 48 25 2 0 -8 20
-23 43 -39 62 -125 100 -225 99 -41 0 -97 -7 -123 -15z"/>
<path d="M3144 776 c-3 -7 -4 -33 -2 -57 l3 -44 110 -3 c72 -2 112 -7 117 -15
4 -7 8 -123 8 -259 l0 -248 64 0 c55 0 66 3 71 19 3 10 4 128 3 261 l-3 242
90 2 90 1 3 58 3 57 -276 0 c-226 0 -277 -3 -281 -14z"/>
<path d="M4015 713 c-25 -73 -148 -395 -194 -511 l-21 -53 72 3 72 3 22 54 21
55 129 -1 129 -1 13 -56 14 -56 74 0 c41 0 74 4 74 9 0 9 -41 122 -175 486
l-51 140 -76 3 -75 3 -28 -78z m148 -204 c21 -64 37 -119 37 -123 0 -3 -39 -6
-86 -6 -65 0 -84 3 -81 13 3 6 23 65 44 129 21 64 41 113 44 110 3 -4 22 -59
42 -123z"/>
<path d="M4110 471 c0 -5 -3 -16 -6 -25 -4 -12 0 -16 16 -16 16 0 20 4 16 16
-3 9 -6 20 -6 25 0 5 -4 9 -10 9 -5 0 -10 -4 -10 -9z"/>
<path d="M3750 738 c0 -22 6 -37 19 -43 130 -69 160 -83 165 -78 14 14 3 23
-64 59 -39 20 -82 50 -95 66 l-25 30 0 -34z"/>
<path d="M2763 643 c-28 -5 -30 -29 -4 -43 28 -15 33 -13 26 10 -4 11 -2 20 4
20 6 0 11 5 11 10 0 6 -3 9 -7 9 -5 -1 -18 -4 -30 -6z"/>
<path d="M1348 624 c-30 -16 -57 -54 -38 -54 16 0 107 48 115 60 9 15 -46 11
-77 -6z"/>
<path d="M3765 620 c-3 -5 3 -10 15 -10 12 0 18 5 15 10 -3 6 -10 10 -15 10
-5 0 -12 -4 -15 -10z"/>
<path d="M3306 532 c-9 -48 -39 -175 -67 -282 -68 -260 -67 -253 -39 -248 26
3 18 -20 99 308 40 161 54 291 32 304 -5 3 -16 -33 -25 -82z"/>
<path d="M3721 574 c31 -34 77 -57 96 -49 12 4 3 15 -33 40 -27 19 -58 35 -68
35 -18 0 -18 -2 5 -26z"/>
<path d="M3820 596 c0 -2 7 -9 15 -16 13 -11 14 -10 9 4 -5 14 -24 23 -24 12z"/>
<path d="M3865 571 c-3 -6 0 -11 9 -11 8 0 17 -6 20 -12 3 -7 5 -4 3 6 -2 22
-22 32 -32 17z"/>
<path d="M1325 558 c-22 -13 -35 -28 -35 -43 0 -5 8 0 18 11 9 12 26 26 37 32
11 6 16 11 10 11 -5 0 -19 -5 -30 -11z"/>
<path d="M1583 560 c-34 -14 -28 -21 7 -9 17 6 30 13 30 15 0 6 -12 4 -37 -6z"/>
<path d="M1655 549 c-41 -21 -114 -49 -129 -49 -4 0 -6 7 -2 15 7 20 -3 19
-59 -6 -39 -17 -49 -19 -56 -8 -12 20 -46 19 -65 -2 -16 -18 -15 -22 9 -76 14
-32 28 -68 31 -80 8 -25 34 -49 43 -39 4 4 2 16 -5 27 -7 11 -10 25 -6 31 5 7
3 8 -6 3 -8 -5 -11 -3 -8 6 3 8 -2 20 -9 28 -12 12 -11 16 9 30 13 9 34 26 46
39 12 12 30 22 40 22 14 0 15 -2 2 -10 -29 -18 -2 -20 41 -2 24 10 50 17 57
15 6 -3 12 0 12 6 0 6 7 11 15 11 17 0 93 38 101 51 9 15 -20 10 -61 -12z"/>
<path d="M1051 522 c-8 -15 -10 -34 -5 -50 7 -26 7 -26 16 12 11 50 5 68 -11
38z"/>
<path d="M1306 384 c-5 -17 -1 -35 9 -50 21 -33 28 -30 23 11 -2 19 -1 35 2
35 3 0 12 -16 19 -35 7 -19 16 -35 21 -35 9 0 0 26 -25 75 -15 30 -42 30 -49
-1z"/>
<path d="M3330 334 c0 -8 5 -12 10 -9 6 3 10 10 10 16 0 5 -4 9 -10 9 -5 0
-10 -7 -10 -16z"/>
<path d="M3570 257 l0 -35 68 -15 c141 -31 131 -31 142 -2 5 14 10 32 10 40 0
15 -71 33 -162 42 l-58 6 0 -36z"/>
<path d="M3315 87 c12 -10 14 -16 7 -21 -7 -4 -12 -18 -12 -32 0 -22 4 -24 53
-24 28 0 62 -3 73 -6 14 -4 23 0 28 11 9 25 -3 38 -22 23 -12 -10 -14 -10 -8
0 5 8 1 12 -12 12 -19 0 -56 33 -47 42 3 2 -14 5 -37 6 -37 2 -40 1 -23 -11z"/>
</g>
</svg>
