<svg viewBox="0 0 600 81.52381" xmlns="http://www.w3.org/2000/svg"><path d="m407.62886 27.39191h29.6058v6.86138h-22.74442v12.83561h17.40808v6.86139h-17.40808v14.52951h-6.86138z"/><path d="m592.70966 65.68911h1.2212v2.79067h.63997v-2.79067h1.2212v-.63997h-3.08238v.63997zm6.63599-.63997-1.10027 1.91133-1.10027-1.91133h-.65435v3.43065h.63997v-2.17288l.79559 1.38213h.6381l.79559-1.38213v2.17288h.63997v-3.43065h-.65435z"/><path d="m556.50007 68.47978v-41.08787h22.55717c4.91815 0 8.91968 4.00153 8.91968 8.91968v8.71867c0 4.74126-3.71877 8.62955-8.39202 8.9036l8.64106 14.54592h-7.9796l-8.63235-14.52984h-8.25265v14.52984zm6.86129-21.39114h15.69588c1.13372 0 2.05839-.92467 2.05839-2.05839v-8.71867c0-1.13372-.92467-2.05839-2.05839-2.05839h-15.69588v12.83544z"/><path d="m524.79721 34.25329v27.36511h10.32289v6.86138h-27.50583v-6.86138h10.32155v-27.36511h-10.32155v-6.86138h27.50583v6.86138zm-37.37649 12.83616v21.39034h-6.86129v-14.52851h-19.48768v14.52851h-6.86129v-21.39034l6.55977-19.69754h20.09086l6.55964 19.69754zm-21.70366-12.83625-4.27497 12.83678h18.74703l-4.27486-12.83678z" fill="#eb0000"/><path d="m360.72262 0 13.69596.00039v13.69557h-27.39193l13.69596-13.69596zm-13.69597 41.08789h27.39194v-13.69557l-13.69597-.00039-13.69597 13.69597z"/><path d="m347.02665 13.69596v27.39193h-13.69557l-.00039-13.69596 13.69596-13.69596zm-13.69597 41.08792.00039 13.69594h13.69554v-27.39188l-13.69594 13.69594z" fill="#eb0000"/><path d="m298.1261 0h1.38208v75.50009h-1.38208z" fill="#808080"/><path d="m264.2908 72.09493c.18799-2.06797-1.33165-3.74428-3.39961-3.74428s-3.88528 1.67631-4.07327 3.74428c-.20367 1.89564 1.19065 3.72861 3.39961 3.72861 2.06796.01567 3.88528-1.66064 4.07327-3.72861zm-.53266-.047c-.15666 1.78597-1.75463 3.24295-3.54061 3.24295-1.75463 0-3.02363-1.40998-2.86696-3.14895.15666-1.77031 1.73897-3.24295 3.54061-3.24295 1.73897 0 3.02363 1.40998 2.86696 3.14895zm-2.58496.50133.59533 1.73897h-.57965l-.57965-1.69198h-.83033l-.31333 1.69198h-.54833l.83033-4.40227h1.4413c.65798 0 1.15932.48566 1.17498 1.11232.01566.57966-.39166 1.33165-1.19065 1.55098h-.00002zm.01566-2.13064h-1.00266l-.31333 1.64498h.90866c.48566 0 .90866-.37599 1.03398-.87732.09399-.39166-.21933-.76765-.62666-.76765zm-122.7294-37.62288c0 3.04918-1.01768 5.59959-3.02087 7.5869-2.66466 2.6452-6.98742 4.0875-12.18511 4.04753-3.73018-.06172-7.49896-.96839-9.63117-2.27856l1.42042-7.47203c2.26013 1.28428 6.20853 2.58058 9.15402 2.58058 2.42588 0 4.06002-1.1193 4.06002-2.91477 0-1.62752-1.1487-2.7649-4.08294-4.2005-4.64128-2.32081-6.96347-5.26292-6.96347-8.73043 0-6.82278 5.81124-11.43341 14.53015-11.43341 4.61346 0 7.61693 1.0872 9.28228 2.15589l-1.41779 7.45726c-1.31997-.99193-4.67483-2.37576-8.33391-2.37576-2.54123 0-4.19609 1.06435-4.19609 2.84615 0 1.27814 1.26634 2.42339 3.94702 3.73011 3.49257 1.74501 7.43745 4.32849 7.43745 9.00104zm-60.43436-22.74629c-12.2823 0-21.53683 8.96894-21.53683 20.8628 0 8.214 5.458 13.51792 13.92446 13.51792 3.62132 0 7.1413-.66354 9.40764-1.76662l1.55165-8.1946c-3.03074 1.5025-5.40223 2.11951-8.19757 2.11951-3.09619 0-6.41749-1.7816-6.41749-6.75451 0-5.86005 4.15605-11.94156 11.13215-11.94156 2.11399 0 3.88323.41965 5.40899 1.2876l1.51858-7.96734c-1.75564-.72643-4.29908-1.1632-6.79158-1.1632zm172.22204 26.74004c4.09888 0 7.64627-1.00256 11.51403-3.2493l-1.5696 8.24872c-4.67096 2.3848-10.15844 2.64375-12.30156 2.64375-9.11853 0-14.33126-5.07108-14.33126-13.92473 0-5.10511 1.87548-10.22064 5.1419-14.03525 3.58377-4.1869 8.59416-6.4906 14.10608-6.4906 6.89837 0 11.49982 4.00776 11.49982 9.95003 0 2.74806-.89411 5.00826-2.65534 6.72469-3.29459 3.21085-11.41463 5.01033-18.80983 3.55802-.35227 4.16688 2.7845 6.57468 7.40577 6.57468zm-6.33404-12.93287c5.75167.04722 8.98703-.53459 10.39888-1.93264 1.52859-1.51886 1.04999-4.77292-2.71816-4.77292-4.23965 0-6.93883 3.4758-7.68072 6.70556zm-15.31312-13.80717c-12.2823 0-21.53676 8.96894-21.53676 20.8628 0 8.214 5.458 13.51792 13.92445 13.51792 3.62132 0 7.1413-.66354 9.40764-1.76662l1.55165-8.1946c-3.03081 1.50257-5.40222 2.11951-8.19757 2.11951-3.09619 0-6.41749-1.78153-6.41749-6.75451 0-5.86005 4.15605-11.94156 11.13215-11.94156 2.11399 0 3.88323.41965 5.40899 1.2876l1.51858-7.96727c-1.75564-.72643-4.29908-1.16327-6.79165-1.16327zm-23.14957 15.21171-3.53421 18.49629h-9.36077l1.21643-6.36627c-1.31293 3.96766-4.51143 7.10754-9.87734 7.10754-6.51241 0-9.45555-5.78128-9.459-11.56706-.00449-6.57281 2.57782-13.08177 6.90286-17.41026 3.62298-3.62505 8.29871-5.54029 13.52607-5.54029 3.97691.01588 6.91874 1.167 8.76219 3.4011 2.72859 3.30639 2.50471 8.26985 1.82378 11.87895zm-9.01216-4.25545c-.11432-2.33227-1.32833-3.5897-3.50521-3.5897-4.6098 0-8.60341 7.95651-8.59989 13.48955.00124 3.45702 1.28256 5.60988 3.5119 5.60988 3.56561 0 6.63667-3.72887 7.69308-9.18936.3598-1.84531.9657-4.8744.90012-6.32036zm-141.56252 4.25545-3.5342 18.49629h-9.36077l1.21643-6.36627c-1.31293 3.96766-4.5115 7.10754-9.87734 7.10754-6.51248 0-9.45555-5.78128-9.459-11.56706-.00449-6.57281 2.57775-13.08177 6.90279-17.41026 3.62304-3.62505 8.2987-5.54029 13.52613-5.54029 3.97684.01588 6.91874 1.167 8.76212 3.4011 2.72866 3.30639 2.50478 8.26985 1.82384 11.87895zm-9.01215-4.25545c-.11432-2.33227-1.32833-3.5897-3.50521-3.5897-4.6098 0-8.60341 7.95651-8.59996 13.48955.00131 3.45702 1.28256 5.60988 3.51197 5.60988 3.56561 0 6.63667-3.72887 7.69308-9.18936.3598-1.84531.9657-4.8744.90012-6.32036zm127.91765 1.55317c0 8.03582-3.85817 16.27516-10.81239 19.98235-2.55456 1.36181-4.99942 1.93368-7.12418 1.95777-3.48132-.00021-5.43301-1.30147-6.54575-3.30798l-2.48946 13.15716h-9.80023l8.31969-43.75826h8.63185l-1.00919 5.31172c2.43865-3.54752 6.0503-5.92052 10.13829-5.92052 6.4861 0 10.69137 4.91554 10.69137 12.57776zm-10.19213.74231c0-1.55765-.36781-5.34044-3.95751-5.34044-3.65011 0-6.73159 4.15853-7.9262 10.46619-.40881 2.15658-1.55317 8.6322 2.95577 8.6322 5.14763 0 8.92793-7.30711 8.92793-13.75795zm-149.93592-5.3584 1.39702-7.35288h-8.63096l-6.41922 33.7512h9.80189l2.64678-13.91603c1.56062-8.20592 6.26852-11.4896 12.96849-10.47523l1.91421-10.06725c-6.0318-.55005-11.41201 2.90069-13.67821 8.06019zm78.61482 25.81465 3.37598-17.75902 6.94883 17.75902h10.53957l-7.18962-17.90005 13.08433-15.26749h-10.69931l-12.62512 15.10001 4.8835-25.6897h-9.73327l-8.31927 43.75723h9.73437zm112.77346 23.20238c0 4.78062-3.30987 8.86383-8.08768 8.86383-3.53766 0-5.72549-2.44655-5.72549-5.78173 0-4.74968 3.30987-8.86383 8.08768-8.86383 3.76825 0 5.72549 2.70527 5.72549 5.78173zm-10.35988 2.99492c0 1.92631 1.00674 3.28175 2.73339 3.28175 2.50561 0 4.1732-3.45329 4.1732-6.24855 0-1.437-.66085-3.2227-2.67715-3.2227-2.67433 0-4.22944 3.5714-4.22944 6.18949zm33.16623-2.99492c0 4.78062-3.30987 8.86383-8.08768 8.86383-3.53766 0-5.72549-2.44655-5.72549-5.78173 0-4.74968 3.30987-8.86383 8.08768-8.86383 3.76825 0 5.72549 2.70527 5.72549 5.78173zm-10.35988 2.99492c0 1.92631 1.00674 3.28175 2.73339 3.28175 2.50561 0 4.1732-3.45329 4.1732-6.24855 0-1.437-.66085-3.2227-2.67715-3.2227-2.67433 0-4.22944 3.5714-4.22944 6.18949zm-7.43191-13.04797-3.53812 18.6019h3.34069l3.56378-18.6019h-3.36636zm-54.02153 4.29946c-5.17994 0-8.89193 4.11413-8.89193 9.00725 0 3.33798 2.15689 5.58205 5.66923 5.58205 1.85839 0 3.31291-.43687 4.13218-.85527l.55293-2.90823c-.48668.27343-1.86657 1.05823-3.76554 1.05823-1.87006 0-3.07928-1.18109-3.07928-3.27893 0-2.93587 2.04443-5.89983 5.26712-5.89983 1.25177 0 2.001.3463 2.58209.65344l.52994-2.78731c-.49176-.23698-1.66058-.5714-2.99675-.5714zm-19.14494 10.53422c-.31778-.54838-.43306-1.49887-.37401-1.98816 5.4105.11528 9.17876-1.03767 9.17876-4.6316 0-2.36217-1.75474-3.94259-4.51906-3.94259-4.83406 0-7.94144 4.60346-7.94144 8.83288 0 3.42516 1.87006 5.81265 5.75642 5.81265 1.84274 0 3.89464-.47167 5.29688-1.31375l.57362-3.01723c-1.14093.82347-2.77729 1.6848-5.09438 1.6848-1.3245 0-2.33122-.48933-2.87678-1.437zm3.8554-8.05954c1.06581 0 1.78291.54556 1.78291 1.43978 0 1.69573-2.21598 2.15692-5.66927 2.12597.40497-1.69569 1.7857-3.56575 3.88636-3.56575zm48.17177 1.34977c0-2.64622-1.5551-3.85262-3.56857-3.85262-1.99916 0-3.81923.98874-5.11884 2.93915l.51891-2.70858h-3.02185l-2.68186 14.10004h3.34069l1.24021-6.47349c.60461-3.28457 2.52815-5.1237 4.05233-5.1237 1.32451 0 1.75758.83239 1.75758 2.01349 0 .54555-.06691 1.15179-.16525 1.6704l-1.50514 7.91331h3.34069l1.56561-8.17204c.14341-.69176.24551-1.67038.24551-2.30594zm-19.40651-3.85262c-1.77463 0-3.40806.77926-4.66167 2.31849l1.26249-6.58979h-3.36636l-3.53812 18.6019h3.34069l1.24021-6.47349c.60461-3.28457 2.52815-5.12371 4.05233-5.12371 1.32454 0 1.7576.83239 1.7576 2.01348 0 .54556-.06691 1.15179-.16527 1.67042l-1.50514 7.91331h3.34069l1.56561-8.17204c.14341-.69176.24551-1.67038.24551-2.30594 0-2.64622-1.5551-3.85262-3.56857-3.85262zm-38.89878-3.29222h-3.2589l-.71594 3.60721h-1.87017l-.48933 2.58992h1.87299l-1.20936 6.24578c-.20236 1.03485-.28965 1.81094-.28965 2.58992 0 1.6114 1.00968 2.87689 3.30995 2.87689.80704 0 1.69855-.0844 2.18788-.2869l.00007-.00035.50533-2.65679c-.38353.0826-.85982.12625-1.34065.12625-.89151 0-1.23728-.48933-1.23728-1.26831 0-.60454.11521-1.32443.25863-1.98538l1.09401-5.6411h3.13833l.51739-2.58992h-3.13833l.66504-3.60721zm112.58581 22.86057c2.56742 1.18768 5.09763.662 6.93231-2.61999v-.00548l9.37565-16.71233h-3.56859l-5.32463 10.4329-1.29296-10.4329h-3.51235l2.4978 13.72373-1.09332 2.19071c-.98236 1.67845-2.69658 1.13072-3.49396.6884l-.51996 2.73495zm-4.56115-19.56836c-5.95994 0-9.01211 5.26952-9.01211 9.70366 0 2.50503 1.23813 4.95252 4.23276 4.95252 1.85807 0 3.53431-.90614 4.65871-2.50238l-.26839 1.22632c-.68897 3.25365-2.35939 4.2885-4.5472 4.2885-1.32454 0-2.87682-.34588-3.68389-.83521l-.51996 2.73495c.96946.47703 2.49226.77739 4.13412.77739 1.77294 0 3.75045-.34588 5.23356-1.5551 1.59963-1.32168 2.38664-3.50952 2.90943-6.24293l1.26891-6.35652c.1726-.77785.28767-1.64144.28767-2.41872 0-2.53379-1.75651-3.77249-4.69361-3.77249zm1.06552 6.01806-.25891 1.29566c-.57591 2.82203-2.36119 4.60731-4.08893 4.60731-1.55457 0-2.21735-1.29566-2.21735-2.82203 0-2.76393 1.92968-6.53585 4.86621-6.53585 1.18059 0 1.84281.63345 1.87158 1.78527.02877.66222-.0851 1.15912-.1726 1.66964z"/></svg>